<svg version="1.1" id="Layer_1" xmlns="http://www.w3.org/2000/svg" xmlns:xlink="http://www.w3.org/1999/xlink" x="0px" y="0px"
	 width="100%" viewBox="0 0 633 630" enable-background="new 0 0 633 630" xml:space="preserve">
<path fill="#0E5148" opacity="1.000000" stroke="none" 
	d="
M1.000000,154.000000 
	C1.000000,102.666664 1.000000,51.833332 1.000000,1.000000 
	C212.000000,1.000000 423.000000,1.000000 634.000000,1.000000 
	C634.000000,211.000000 634.000000,421.000000 634.000000,631.000000 
	C423.000000,631.000000 212.000000,631.000000 1.000000,631.000000 
	C1.000000,472.166656 1.000000,313.333344 1.000000,154.000000 
M117.500000,607.000000 
	C280.911072,607.000000 444.322174,607.000000 607.706604,607.000000 
	C607.706604,412.696564 607.706604,218.981186 607.706604,25.292744 
	C413.697845,25.292744 219.982361,25.292744 26.293571,25.292744 
	C26.293571,219.301025 26.293571,413.016388 26.293571,607.000000 
	C56.557365,607.000000 86.528679,607.000000 117.500000,607.000000 
z"/>
<path fill="#FFFFFF" opacity="1.000000" stroke="none" 
	d="
M117.000000,607.000000 
	C86.528679,607.000000 56.557365,607.000000 26.293571,607.000000 
	C26.293571,413.016388 26.293571,219.301025 26.293571,25.292744 
	C219.982361,25.292744 413.697845,25.292744 607.706604,25.292744 
	C607.706604,218.981186 607.706604,412.696564 607.706604,607.000000 
	C444.322174,607.000000 280.911072,607.000000 117.000000,607.000000 
M70.500000,598.002136 
	C246.578232,598.002136 422.656464,598.002136 598.711304,598.002136 
	C598.711304,409.702881 598.711304,221.984985 598.711304,34.289391 
	C410.701416,34.289391 222.983643,34.289391 35.288536,34.289391 
	C35.288536,222.299881 35.288536,410.017792 35.288536,598.002136 
	C46.885750,598.002136 58.192875,598.002136 70.500000,598.002136 
z"/>
<path fill="#0F5249" opacity="1.000000" stroke="none" 
	d="
M70.000000,598.002136 
	C58.192875,598.002136 46.885750,598.002136 35.288536,598.002136 
	C35.288536,410.017792 35.288536,222.299881 35.288536,34.289391 
	C222.983643,34.289391 410.701416,34.289391 598.711304,34.289391 
	C598.711304,221.984985 598.711304,409.702881 598.711304,598.002136 
	C422.656464,598.002136 246.578232,598.002136 70.000000,598.002136 
M343.986053,299.941528 
	C343.986053,299.941528 343.958008,300.039520 344.618317,300.592712 
	C345.185120,299.577057 346.149017,298.593842 346.235260,297.538910 
	C346.409637,295.405579 346.107849,293.233337 346.002472,291.077179 
	C346.593933,291.018219 347.185394,290.959259 347.776855,290.900299 
	C348.091980,292.944916 348.007538,295.172516 348.836212,296.981964 
	C349.642883,298.743408 351.384430,300.076721 352.715515,301.598053 
	C353.003571,301.316010 353.291626,301.033966 353.579681,300.751923 
	C353.018860,298.698517 352.458038,296.645111 351.672272,293.768066 
	C358.229553,296.406982 363.604553,298.669983 362.405823,305.516541 
	C365.076080,305.089203 367.358398,304.723938 370.955139,304.148346 
	C375.751923,298.420807 364.935028,295.213379 366.562714,288.778412 
	C370.123505,291.964905 372.924835,295.736938 376.162659,299.087097 
	C378.230499,301.226654 380.730103,303.234314 383.425323,304.405823 
	C386.419128,305.707123 389.855408,305.990570 393.187042,306.736877 
	C391.737335,299.732239 381.377747,304.190308 379.541931,296.866241 
	C381.083344,296.962463 382.539886,297.053345 384.590240,297.181335 
	C380.929382,294.788605 377.854309,292.778748 374.779236,290.768890 
	C375.108337,290.262299 375.437469,289.755676 375.766571,289.249084 
	C384.520355,291.118378 393.989166,291.792114 397.125000,303.650726 
	C397.920898,301.520966 398.432556,300.151733 398.944214,298.782501 
	C399.514252,298.591583 400.084259,298.400665 400.654266,298.209747 
	C402.283020,301.236786 403.911774,304.263855 405.458344,307.138123 
	C407.736237,303.041412 410.439880,307.741089 413.311432,308.190308 
	C412.148590,306.950623 410.985748,305.710907 409.822906,304.471222 
	C412.003601,304.400635 414.184296,304.330048 416.996094,304.239044 
	C407.084991,298.659882 399.364014,290.348480 388.141571,287.388428 
	C382.473419,285.893433 377.371735,282.359619 371.852844,280.149902 
	C368.355652,278.749664 364.615723,277.754944 360.891754,277.156189 
	C343.718506,274.395050 336.391449,269.532257 332.815826,254.842026 
	C332.108490,251.936005 330.666260,249.117615 330.470764,246.198029 
	C330.110168,240.812042 329.005920,234.864670 330.751312,230.077118 
	C334.292908,220.362595 341.494476,213.291306 351.743073,210.180084 
	C359.536163,207.814301 367.485321,205.961670 375.273193,203.580414 
	C378.018860,202.740860 379.444061,203.121948 380.813416,205.726410 
	C384.164215,212.099701 389.552063,215.640594 396.822083,216.014679 
	C401.584503,216.259750 403.185455,213.949646 400.561371,209.924515 
	C398.383911,206.584457 395.282623,203.846680 392.892761,201.179321 
	C401.246582,197.589325 409.973755,193.838882 418.716461,190.081772 
	C424.397675,198.910019 430.286835,201.170410 438.224762,197.321381 
	C436.581390,189.729279 431.584412,185.813583 424.153809,184.794083 
	C425.053040,179.392822 426.407928,175.062256 433.135498,176.796890 
	C434.123749,177.051697 435.548859,176.599426 436.437256,175.988083 
	C437.409332,175.319183 438.651001,174.017349 438.557343,173.118164 
	C438.467163,172.252014 436.891022,171.013092 435.846588,170.878632 
	C433.311249,170.552170 430.705536,170.772430 428.128174,170.772430 
	C427.893921,170.257599 427.659668,169.742752 427.425446,169.227921 
	C428.597534,168.330765 429.784088,167.451767 430.938812,166.532822 
	C433.674591,164.355652 437.701843,162.656570 438.773956,159.838562 
	C439.971924,156.689728 439.408966,152.060577 437.864807,148.940552 
	C436.673279,146.532959 431.067963,149.542236 428.748901,154.132553 
	C427.747742,156.114258 427.072693,158.260727 426.092621,160.727158 
	C421.946808,157.248154 416.235992,156.662659 414.692383,150.537750 
	C414.308838,149.015839 410.827240,148.274673 408.769653,147.174652 
	C408.481750,147.646500 408.193817,148.118347 407.905914,148.590210 
	C408.988007,150.121841 410.070099,151.653488 411.152191,153.185120 
	C410.676239,153.104782 410.200256,153.024460 409.724304,152.944122 
	C408.790222,155.902817 407.856140,158.861526 406.922058,161.820221 
	C409.961334,160.593765 413.000641,159.367325 416.039917,158.140869 
	C417.069824,157.781174 418.271454,158.923141 419.631470,159.826630 
	C420.598694,160.469162 421.779388,160.790359 422.864807,161.254974 
	C415.274414,163.391296 412.106689,165.923920 410.581757,172.046570 
	C412.834595,172.046570 414.899414,172.221390 416.920013,171.997269 
	C418.933533,171.773926 420.902679,171.150421 423.017975,170.673813 
	C421.813873,180.658844 406.199371,193.042130 398.021912,190.689056 
	C398.883331,189.867905 399.705841,189.149872 400.453278,188.360718 
	C405.589661,182.937790 405.957275,178.234406 401.906555,172.020706 
	C400.263275,169.499969 398.366730,169.452408 395.961761,170.810654 
	C386.050018,176.408493 382.559357,184.911484 386.036163,196.116486 
	C381.316010,196.618195 376.708679,197.107910 370.870239,197.728485 
	C374.019836,193.265244 377.965881,190.183472 374.694427,185.402084 
	C367.988007,184.978409 366.810944,185.469238 365.222443,191.961273 
	C363.741699,198.012726 360.198822,200.803787 354.250916,201.827301 
	C348.715210,202.779877 343.317047,204.526489 337.851196,205.895020 
	C336.690277,206.185684 335.498474,206.353058 333.173401,206.795654 
	C338.413452,199.695419 342.859314,193.539917 347.510712,187.543808 
	C348.059845,186.835876 349.728851,186.955215 350.891632,186.773422 
	C353.267731,186.401932 355.652557,186.086533 358.033813,185.748032 
	C356.588715,184.393127 355.143616,183.038208 353.631439,181.620453 
	C356.771790,176.623337 356.707214,177.268646 361.856598,179.477051 
	C366.727112,181.565857 372.298920,182.177856 377.634430,182.922668 
	C379.139923,183.132828 380.898834,181.527512 383.783936,180.170532 
	C376.978424,176.584274 371.537445,173.717072 365.054291,170.300690 
	C372.979401,167.079727 380.236298,163.965195 387.660309,161.319641 
	C388.600525,160.984589 390.496552,163.012924 391.809021,164.114029 
	C393.931702,165.894867 395.237579,170.231140 399.022949,166.171417 
	C399.163330,166.020798 399.574310,166.122437 399.922852,166.102982 
	C400.640930,167.141907 401.382324,168.214493 402.123688,169.287079 
	C405.322266,161.259628 399.574036,158.542404 394.557861,155.090164 
	C398.693542,151.848740 398.620483,148.471985 394.583862,143.526352 
	C392.425629,147.672821 390.683685,151.019531 388.637177,154.951401 
	C386.876282,155.280396 384.001099,155.817596 381.128510,156.354294 
	C379.838654,153.725006 378.533020,151.063522 377.227386,148.402039 
	C376.547394,148.479858 375.867401,148.557678 375.187378,148.635498 
	C374.783203,151.370529 374.443878,154.117462 373.945953,156.835312 
	C373.716522,158.087677 373.540314,159.928558 372.715149,160.393372 
	C369.032257,162.468002 365.123901,164.142365 360.562439,166.310455 
	C360.313293,163.188751 360.113251,160.682297 359.875336,157.701599 
	C362.889282,157.701599 365.258575,157.701599 368.891357,157.701599 
	C367.053162,152.168182 366.554413,146.451157 363.542175,142.818054 
	C360.688995,139.376816 355.199982,138.120987 350.745697,135.840286 
	C353.479492,131.808182 353.796600,126.437683 351.746307,120.795258 
	C351.450562,119.981445 351.835175,118.920418 352.610748,117.770050 
	C358.729797,115.941948 363.420471,112.633362 364.306946,105.790131 
	C364.896515,101.239174 362.749023,99.605225 358.460175,101.053123 
	C351.498657,103.403297 349.470520,107.986931 350.255432,118.353706 
	C348.014008,118.176559 345.773743,117.982780 343.530914,117.825890 
	C339.452911,117.540627 334.896301,116.018059 331.419678,117.335213 
	C327.404602,118.856346 324.340881,122.888618 320.462799,126.170052 
	C328.520020,129.888535 335.522858,129.481476 342.358185,124.446030 
	C343.674622,123.476227 345.943085,123.798752 347.772339,123.525101 
	C347.893921,125.515282 348.901184,128.180161 347.986481,129.380890 
	C343.620270,135.112427 338.732300,140.446487 333.959564,145.126312 
	C333.853424,139.186966 330.909790,136.103455 324.559631,136.425339 
	C321.855408,136.562408 319.237183,138.396042 316.579865,139.458664 
	C318.325104,141.663361 319.657532,144.596390 321.924194,145.881104 
	C324.524902,147.355133 327.953766,147.367920 331.094910,148.716736 
	C328.488831,150.951035 325.882751,153.185333 323.719391,155.040085 
	C319.757812,152.503387 316.267670,150.268585 312.376312,147.776871 
	C310.832275,154.009674 313.715515,157.431534 317.780243,160.593872 
	C312.729095,166.196411 307.880585,171.574158 302.963470,177.028015 
	C299.347595,173.458557 296.186951,170.338501 293.602631,167.787354 
	C298.068207,165.616196 302.389862,163.805542 306.373322,161.428162 
	C307.863647,160.538696 308.565979,158.328979 309.627594,156.721207 
	C307.870544,155.621002 306.233582,153.895691 304.335205,153.530960 
	C296.904602,152.103333 290.046814,152.974869 285.439453,161.011032 
	C281.974945,156.157928 278.965271,151.941971 275.819519,147.535370 
	C279.926636,145.091232 283.225006,142.862885 281.711029,137.238083 
	C278.744476,138.173645 276.025085,139.031265 273.339722,139.878159 
	C270.514984,132.503601 271.444061,125.032654 276.279236,119.642334 
	C277.221802,118.591545 279.580933,118.518272 281.286530,118.518715 
	C283.459900,118.519279 285.633118,119.053490 287.806427,119.357658 
	C288.247620,118.566353 288.688843,117.775040 289.130066,116.983727 
	C286.961945,115.604706 284.793793,114.225677 281.900421,112.385376 
	C285.590881,110.535347 288.205048,109.154854 290.879181,107.902496 
	C294.046844,106.419014 296.392090,107.632927 297.983948,110.466789 
	C299.657318,113.445648 298.853607,115.903519 296.064697,117.764717 
	C293.440643,119.515900 290.146423,120.747154 288.339539,123.116547 
	C286.052826,126.115181 283.269775,130.294556 283.760864,133.495148 
	C284.541931,138.585297 287.705719,143.363251 290.156616,148.121338 
	C291.393402,150.522308 293.252319,150.596695 295.415985,148.627319 
	C298.353180,145.953827 301.353180,143.217575 304.734375,141.188339 
	C314.836517,135.125534 311.645020,124.581963 305.488251,119.524025 
	C303.734009,118.082840 302.362732,115.434578 302.013611,113.156281 
	C300.723450,104.737274 294.937286,101.306801 287.042389,104.713135 
	C285.841888,105.231094 284.620087,105.699631 283.622986,106.103905 
	C282.177948,104.496437 281.142120,102.624321 279.562164,101.816582 
	C278.319855,101.181480 276.405914,101.860199 274.790314,101.955292 
	C275.314850,103.367615 275.558655,105.000648 276.445251,106.128273 
	C277.280060,107.189987 278.792511,107.718887 279.461060,108.139137 
	C274.026886,115.601547 268.736420,122.866631 263.269714,130.373749 
	C260.929413,129.163681 261.832031,126.414665 262.864044,123.703568 
	C265.428955,116.965668 262.328796,111.972748 257.428314,106.023109 
	C255.921555,109.352325 254.349228,111.696442 253.841629,114.252052 
	C253.286392,117.047539 253.715347,120.038506 253.715347,122.948868 
	C250.292389,123.517128 245.908875,122.388695 245.976196,128.699265 
	C245.277969,129.530273 244.709412,130.900208 243.860397,131.104477 
	C238.504272,132.393127 238.741333,136.755051 237.882217,140.782196 
	C245.828537,140.264282 247.470779,138.069199 248.203323,127.400856 
	C250.697113,124.952904 252.418793,126.266792 254.061615,128.259964 
	C252.377472,129.534668 250.925659,130.633530 249.473862,131.732391 
	C249.585831,132.229736 249.697815,132.727066 249.809784,133.224411 
	C251.975327,133.525650 254.194580,134.271271 256.293091,134.017761 
	C259.032379,133.686829 260.768982,133.873444 260.776489,137.119797 
	C248.010345,138.955429 241.383896,142.857727 235.825272,152.306320 
	C239.631378,154.244751 243.220581,157.156265 247.203979,157.871078 
	C254.982864,159.266968 261.150208,155.309692 266.129639,148.561401 
	C268.543213,153.435547 270.514679,157.416901 272.760773,161.952911 
	C267.786865,160.952301 263.762604,160.357956 260.409882,164.648117 
	C264.454529,167.706100 268.421661,167.194397 272.538605,166.334198 
	C273.931946,166.043076 276.119781,165.845764 276.833282,166.624176 
	C280.831787,170.986572 284.490417,175.660477 288.322327,180.297272 
	C285.659424,181.323959 283.584473,182.123947 279.835754,183.569244 
	C283.282532,185.610001 286.082825,188.440170 287.437408,187.865067 
	C293.007538,185.500168 293.620483,189.419357 294.965698,192.736969 
	C296.339233,196.124390 297.952820,199.450668 298.934906,202.951401 
	C300.150635,207.284927 300.824402,211.770462 301.732300,216.190323 
	C301.343811,216.355591 300.955322,216.520874 300.566833,216.686142 
	C297.737274,214.639420 294.907715,212.592682 292.078156,210.545944 
	C292.542511,210.361557 293.006836,210.177155 293.471191,209.992767 
	C291.970978,205.680542 290.470764,201.368301 288.970551,197.056061 
	C288.496490,196.946243 288.022461,196.836441 287.548431,196.726624 
	C285.960419,199.750687 284.372437,202.774750 282.702148,205.955536 
	C278.799591,204.848511 274.631134,203.666061 269.836304,202.305939 
	C271.935211,201.073395 273.448486,200.137772 275.004791,199.280136 
	C278.761566,197.209930 280.528076,193.891418 280.180298,189.786697 
	C280.065521,188.431854 278.522003,186.386383 277.279846,186.079071 
	C271.874237,184.741638 265.937286,187.865173 263.774994,193.100311 
	C262.666687,195.783585 262.274109,198.762497 261.543274,201.666718 
	C259.489532,201.666718 257.399353,201.666718 256.168579,201.666718 
	C254.498245,198.507339 253.148743,195.954819 251.799240,193.402313 
	C251.196060,193.480392 250.592880,193.558472 249.989685,193.636551 
	C249.284164,195.768372 248.578629,197.900208 247.631348,200.762543 
	C242.754227,199.286118 237.787491,197.782562 232.015945,196.035370 
	C234.830826,192.534485 238.310455,189.493881 234.217468,186.228058 
	C233.569214,185.710831 230.116104,188.708908 227.884018,190.129959 
	C222.464844,183.194214 223.949387,171.611893 231.225937,169.144867 
	C230.158081,175.820679 230.662750,178.935074 234.134308,182.529388 
	C240.948273,189.584305 249.379517,192.217117 259.080902,191.236710 
	C262.487000,190.892487 263.094879,189.379395 262.359619,186.192856 
	C259.608093,174.268173 250.915863,169.244629 240.111008,166.649292 
	C228.702713,163.908997 228.307617,164.123566 221.572708,173.659698 
	C221.421906,173.873215 220.985641,173.885147 220.679001,173.980988 
	C209.195312,166.115524 199.829819,164.574280 192.410004,169.328903 
	C195.644363,180.199722 207.179260,185.244064 220.227341,181.517914 
	C221.526993,185.530334 222.823593,189.533340 224.202835,193.791473 
	C218.550949,194.322510 213.848511,196.255463 211.202347,201.539062 
	C217.823593,206.369797 222.776718,205.044571 228.168701,197.434708 
	C234.470993,200.099716 240.676743,202.723892 246.434555,205.158646 
	C241.979401,208.379456 237.520981,211.602646 233.062546,214.825821 
	C233.226501,215.317169 233.390457,215.808502 233.554428,216.299835 
	C236.235184,216.831360 239.434326,216.614120 241.495255,218.040939 
	C246.755646,221.682800 250.222778,218.223602 253.812820,215.608017 
	C255.767105,214.184158 256.925293,211.712799 258.741302,210.037796 
	C259.919647,208.950943 261.867188,207.531570 263.075134,207.834732 
	C270.298889,209.647781 277.965698,210.848404 284.452820,214.231506 
	C305.554749,225.236420 303.904449,250.337051 295.566772,264.155579 
	C294.186096,266.443848 291.751007,268.816986 289.302429,269.615631 
	C278.425171,273.163422 267.379761,276.202057 256.367493,279.327240 
	C247.987076,281.705536 239.565018,283.937042 230.129791,286.515808 
	C232.153168,287.819824 232.807220,288.241333 232.959854,288.339691 
	C226.223618,292.970032 219.636078,297.498138 213.048553,302.026276 
	C213.198380,302.345062 213.348221,302.663879 213.498047,302.982666 
	C214.976929,302.982666 216.455811,302.982666 218.404861,302.982666 
	C217.202606,304.684021 216.295395,305.967834 215.388184,307.251678 
	C215.660950,307.561462 215.933701,307.871246 216.206451,308.181030 
	C218.634308,306.906891 221.062164,305.632751 223.991760,304.924774 
	C224.164505,305.108459 224.337265,305.292175 224.001511,306.002838 
	C223.682343,306.792236 223.363190,307.581665 223.044037,308.371063 
	C224.072067,308.187408 225.503876,308.367432 226.055649,307.754852 
	C228.052765,305.537628 229.754318,303.054230 231.567413,300.671265 
	C232.027176,300.871826 232.486938,301.072357 232.946701,301.272919 
	C232.724609,303.733368 232.502518,306.193787 232.280426,308.654236 
	C234.251755,306.808716 235.036896,304.492279 236.037277,302.272827 
	C236.853439,300.462067 237.500427,298.152161 238.966003,297.136261 
	C243.370636,294.083191 248.150955,291.574829 252.760849,288.814087 
	C255.585236,287.122650 258.365845,285.358063 261.166107,283.626343 
	C260.509186,291.512878 253.940201,292.349548 249.575943,295.395599 
	C249.424850,297.046936 249.289932,298.521332 248.653275,300.332092 
	C247.421326,302.120514 245.854660,304.321381 249.042984,305.239532 
	C250.333466,305.611115 252.410065,304.030579 253.810059,302.932007 
	C254.566040,302.338776 254.649414,300.888367 255.732513,300.187927 
	C255.511261,302.697693 255.289993,305.207428 255.068726,307.717194 
	C259.524353,303.701172 259.969910,296.316650 267.906372,295.867584 
	C270.022278,290.152924 283.547546,279.422028 290.508331,279.625977 
	C286.222809,284.739838 282.532501,289.143433 278.640991,293.787140 
	C278.027039,297.516602 277.271027,302.109039 276.457001,307.053619 
	C277.539307,306.374359 278.421143,305.820923 279.570557,305.099579 
	C279.467651,307.083832 279.394684,308.490845 279.321716,309.897858 
	C279.786804,309.968018 280.251892,310.038208 280.716980,310.108398 
	C281.575775,306.496307 282.043549,302.728271 283.404114,299.316284 
	C284.747467,295.947540 285.921631,291.743225 292.303986,291.665375 
	C290.010529,294.876190 288.413116,297.112518 286.815735,299.348877 
	C287.109772,299.619812 287.403839,299.890778 287.697876,300.161743 
	C289.614227,298.638702 291.530548,297.115662 294.820099,294.501251 
	C294.820099,299.327942 294.820099,302.718628 294.820099,306.109314 
	C295.125244,306.322479 295.430389,306.535675 295.735535,306.748840 
	C296.908447,304.845093 298.081360,302.941345 299.883972,301.112976 
	C300.094421,301.093170 300.304901,301.073395 300.616913,301.761536 
	C302.312073,307.732788 297.617493,309.166321 293.745422,311.680634 
	C295.488556,312.130554 297.583954,312.412781 298.327240,311.541504 
	C300.515930,308.975952 303.369019,306.120819 303.794495,303.076111 
	C304.854126,295.493469 311.973236,292.521088 315.239960,286.603638 
	C314.265259,292.755707 313.290588,298.907776 312.315918,305.059845 
	C312.665283,305.274933 313.014679,305.490021 313.364044,305.705139 
	C315.038574,302.254791 316.713104,298.804474 318.395874,295.337189 
	C320.646057,299.511963 321.938507,304.005402 317.523193,308.666046 
	C317.912262,308.907867 318.301331,309.149689 318.690399,309.391479 
	C320.463959,307.838257 322.237488,306.285065 323.954193,304.781616 
	C325.587921,305.572479 327.106598,306.307617 328.625275,307.042786 
	C329.068634,306.425415 329.511963,305.808044 329.955322,305.190674 
	C328.557617,304.693115 327.159882,304.195526 325.762177,303.697937 
	C326.464508,303.549408 327.166809,303.400879 327.869110,303.252380 
	C329.291840,299.016388 330.714569,294.780365 332.432861,289.664276 
	C334.376434,297.773010 337.797180,304.721497 344.874023,309.304932 
	C344.256195,307.498962 343.638367,305.692993 343.125061,303.354340 
	C343.439911,302.710114 343.754761,302.065887 344.527130,300.697174 
	C344.379974,300.452362 344.232849,300.207550 343.986053,299.941528 
M199.619766,376.116119 
	C197.152023,372.659210 194.230682,374.119934 191.257584,375.156616 
	C191.019440,377.313965 190.866669,379.299500 190.571503,381.263641 
	C189.510880,388.321381 187.726883,390.388611 180.786865,390.874023 
	C171.829697,391.500519 162.832092,391.529846 153.856888,391.928558 
	C150.798660,392.064423 149.761398,390.736511 149.768631,387.809113 
	C149.794144,377.484161 149.764893,367.157349 149.581436,356.834381 
	C149.500763,352.295593 152.240555,351.168823 155.903412,351.021301 
	C164.723831,350.666016 173.558289,350.578674 182.367920,350.058655 
	C191.253204,349.534119 197.188828,352.674408 200.264542,361.535492 
	C202.468048,367.883728 203.547806,367.929749 211.289444,366.014801 
	C210.657974,357.498474 210.016083,348.841583 209.395203,340.468140 
	C174.811584,340.468140 141.078568,340.468140 107.546455,340.468140 
	C105.918854,345.376709 108.273773,347.344971 112.573158,348.039764 
	C114.536018,348.356964 116.438278,349.078156 118.404770,349.337860 
	C122.553452,349.885773 124.055832,351.884460 124.088097,356.273651 
	C124.291267,383.920502 124.813278,411.565002 125.212791,439.210510 
	C125.236824,440.873932 125.081436,442.539215 125.065155,444.204163 
	C125.036797,447.104797 123.814217,448.765137 120.770981,449.323761 
	C116.075966,450.185669 111.444504,451.393829 106.587860,452.500244 
	C106.587860,454.680969 106.587860,456.612671 106.587860,458.602783 
	C127.880554,458.602783 149.091888,458.602783 170.360855,458.602783 
	C171.994064,453.949158 170.129623,451.757141 165.551193,451.253021 
	C162.574829,450.925323 159.618149,450.422699 156.646027,450.051483 
	C152.779922,449.568604 150.729233,447.625671 150.677277,443.522369 
	C150.521286,431.201263 150.326706,418.878662 149.927063,406.563812 
	C149.798813,402.612335 151.573929,401.144043 155.165497,401.220520 
	C162.154388,401.369202 169.154205,401.373840 176.127533,401.798859 
	C187.277512,402.478516 187.626022,402.621948 190.665192,413.127960 
	C192.017105,417.801392 194.331070,418.871002 199.627502,417.162903 
	C199.627502,403.880310 199.627502,390.419708 199.619766,376.116119 
M313.928528,409.421265 
	C314.139954,399.100464 314.203735,388.773376 314.645233,378.462433 
	C314.793793,374.993042 313.328217,373.945648 310.351868,374.037537 
	C307.567902,374.123474 306.060211,375.069733 305.818909,378.435303 
	C305.126129,388.098297 303.325684,390.328552 295.636292,390.887970 
	C286.848938,391.527344 278.017212,391.535034 269.210663,391.944244 
	C266.037415,392.091675 264.727356,390.937561 264.748260,387.670227 
	C264.814331,377.347839 264.760406,367.022949 264.593567,356.701630 
	C264.518951,352.084106 267.426208,351.154724 271.033844,351.011353 
	C279.852386,350.660797 288.685974,350.591553 297.492371,350.059174 
	C306.437012,349.518494 312.257812,352.844543 315.310669,361.645264 
	C317.465088,367.855896 318.856750,368.035614 326.312103,365.908295 
	C325.671326,357.419983 325.018738,348.774902 324.391632,340.467712 
	C289.727875,340.467712 256.022308,340.467712 222.758804,340.467712 
	C220.581421,345.771606 223.612350,347.234528 227.662384,348.056183 
	C230.264877,348.584198 232.813187,349.379791 235.416290,349.903961 
	C237.937836,350.411743 238.929230,351.724365 238.968842,354.374725 
	C239.140488,365.862000 239.615891,377.344849 239.777512,388.832153 
	C240.018860,405.984497 240.137512,423.139099 240.210968,440.293152 
	C240.245605,448.386322 240.051743,448.485413 232.296890,450.114502 
	C228.768051,450.855835 225.250748,451.652100 221.573639,452.457275 
	C221.573639,454.744812 221.573639,456.670166 221.573639,458.601379 
	C242.931839,458.601379 264.139832,458.601379 285.376526,458.601379 
	C286.969482,453.884094 285.146667,451.671051 280.494049,451.232574 
	C277.680573,450.967438 274.896057,450.396271 272.082825,450.126495 
	C267.687408,449.704956 265.633575,447.443481 265.595093,442.970551 
	C265.487671,430.483978 265.272400,417.997650 264.992523,405.513641 
	C264.923279,402.424530 266.522980,401.299927 269.218475,401.331360 
	C276.537445,401.416748 283.868195,401.385193 291.170441,401.809998 
	C302.284454,402.456482 302.630798,402.603363 305.671265,413.168640 
	C307.037842,417.917480 309.430298,418.759247 313.929138,417.448395 
	C313.929138,415.006561 313.929138,412.699158 313.928528,409.421265 
M450.767303,441.227417 
	C451.643097,435.913452 452.518860,430.599487 453.371185,425.427856 
	C447.415436,424.100311 444.061890,426.213593 440.507629,430.434662 
	C435.545746,436.327484 429.840088,442.102142 423.324921,446.080444 
	C406.071838,456.615448 384.656830,449.621246 375.469788,431.644073 
	C369.628723,420.214264 369.001495,408.008850 369.326538,395.656006 
	C369.676117,382.370819 371.922699,369.518616 379.710693,358.225708 
	C386.874878,347.837341 396.763580,343.955322 409.101349,345.416931 
	C422.070374,346.953278 431.795868,353.924194 439.077454,364.152313 
	C442.481903,368.934418 446.139191,369.871216 452.395782,368.425446 
	C450.375336,360.412170 448.240082,352.633728 446.506866,344.766754 
	C445.688843,341.053864 443.598663,339.454224 440.100616,339.144440 
	C428.186371,338.089447 416.279022,336.259613 404.354980,336.141541 
	C368.064148,335.782227 342.664429,359.959808 340.425781,396.206970 
	C338.691040,424.294769 354.990204,449.267639 380.638947,456.574646 
	C399.080902,461.828552 417.815460,461.227600 436.444458,456.881561 
	C444.407806,455.023743 450.078522,450.996704 450.767303,441.227417 
M492.812195,338.797974 
	C484.238800,338.797974 475.665405,338.797974 467.085510,338.797974 
	C466.803772,346.998230 467.390686,345.793121 473.853119,346.388367 
	C474.845154,346.479736 475.822327,346.813690 476.811615,346.840332 
	C481.518524,346.967285 483.337097,349.033966 483.270355,354.013885 
	C482.973816,376.139313 483.060577,398.269897 483.015442,420.398621 
	C483.003204,426.393433 483.026825,432.388336 483.011292,438.383148 
	C482.988434,447.206787 482.470673,447.869659 474.156006,450.088715 
	C471.615051,450.766876 469.087616,451.495697 466.643890,452.176239 
	C466.643890,454.247803 466.643890,455.981964 466.643890,457.535645 
	C486.190887,457.535645 505.408569,457.535645 524.617676,457.535645 
	C524.617676,455.341827 524.617676,453.396179 524.617676,451.148621 
	C520.483276,450.498657 516.590698,449.612488 512.656311,449.346832 
	C508.879059,449.091797 508.192902,447.374817 508.229980,443.884613 
	C508.518402,416.750122 508.793823,389.612213 508.639191,362.477814 
	C508.565826,349.604095 508.089569,349.446564 520.097046,345.978210 
	C524.449036,344.721069 526.212830,342.702393 524.929138,338.822052 
	C514.346191,338.822052 504.052277,338.822052 492.812195,338.797974 
M417.815308,492.977264 
	C419.158051,491.619019 420.505920,490.265839 421.841705,488.900787 
	C422.782104,487.939789 423.706116,486.962769 425.217834,485.388519 
	C417.969360,485.388519 412.268860,485.388519 406.568359,485.388519 
	C406.386597,485.846680 406.204834,486.304871 406.023071,486.763031 
	C407.327332,487.504730 408.692596,488.158844 409.918518,489.012939 
	C411.124054,489.852783 413.076538,490.813080 413.173981,491.862366 
	C413.963257,500.359741 414.392853,508.890533 414.994141,518.392212 
	C413.106812,516.663330 412.000336,515.706909 410.957458,514.685486 
	C401.793396,505.710266 392.661377,496.702118 383.458282,487.767120 
	C382.314941,486.657074 380.856049,485.218048 379.468201,485.131073 
	C374.410065,484.813934 369.320007,485.005798 364.242004,485.005798 
	C364.066559,485.528442 363.891144,486.051117 363.715698,486.573761 
	C365.007690,487.289795 366.222565,488.287689 367.606842,488.666229 
	C371.050049,489.607880 373.180542,491.351715 373.151123,495.233429 
	C373.077911,504.893677 373.183777,514.555847 373.030823,524.214294 
	C373.011627,525.425049 372.158783,527.291382 371.196411,527.707581 
	C365.829559,530.028503 360.184875,527.441467 357.943298,522.024170 
	C353.112427,510.348877 348.295959,498.666809 343.318420,487.054047 
	C342.783966,485.807159 341.207733,484.192841 340.146942,484.216125 
	C339.101593,484.239044 337.650757,485.949768 337.144501,487.224487 
	C332.543182,498.809998 328.055267,510.441681 323.662170,522.108032 
	C322.423859,525.396545 321.166748,528.251282 316.898804,528.122314 
	C316.207703,528.101440 315.480072,529.288391 313.856720,530.724243 
	C321.109863,530.724243 326.999298,530.724243 332.888702,530.724243 
	C333.093018,530.300598 333.297333,529.876953 333.501648,529.453308 
	C331.369354,528.467529 329.237061,527.481750 326.501740,526.217224 
	C329.188171,522.647400 327.117462,515.903076 333.430328,515.166809 
	C344.473877,513.878723 345.099243,514.699341 348.638245,526.632446 
	C346.399902,527.619080 344.186615,528.594727 341.973297,529.570312 
	C342.156006,529.929993 342.338715,530.289612 342.521393,530.649292 
	C356.892975,530.649292 371.264526,530.649292 387.147797,530.649292 
	C385.318634,528.958923 384.391266,527.447266 383.673553,527.541016 
	C377.231934,528.382385 377.801208,523.965088 377.695648,519.954102 
	C377.651855,518.290039 377.417633,516.629456 377.407532,514.966431 
	C377.371094,508.968140 377.393188,502.969513 377.393188,495.650116 
	C389.493561,507.532898 400.600189,518.553894 411.883972,529.390442 
	C413.469513,530.913086 415.922150,531.532715 417.847168,532.506531 
	C417.847168,518.831360 417.847168,506.357483 417.815308,492.977264 
M108.891121,510.187653 
	C108.709358,513.677979 108.397316,517.167725 108.381416,520.658875 
	C108.364548,524.361816 107.570229,527.190918 103.211861,527.788208 
	C102.357307,527.905334 101.671883,529.256470 100.341125,530.619629 
	C107.497902,530.619629 113.506882,530.619629 119.515862,530.619629 
	C119.678741,530.236694 119.841629,529.853699 120.004517,529.470764 
	C118.851067,528.706543 117.593445,528.059692 116.569008,527.150208 
	C115.094360,525.841064 112.664146,524.391479 112.597656,522.913818 
	C112.215897,514.430237 112.411873,505.920776 112.411873,497.420074 
	C112.961761,497.353333 113.511658,497.286621 114.061546,497.219879 
	C118.827454,507.572479 123.566566,517.937683 128.400131,528.258545 
	C128.891937,529.308716 129.951859,530.092773 130.748123,531.000305 
	C131.567551,530.167297 132.718231,529.479065 133.155060,528.479004 
	C137.474091,518.590698 141.662933,508.645660 145.929291,498.734161 
	C146.311157,497.847015 146.978104,497.082581 147.512650,496.261169 
	C148.001266,496.352600 148.489899,496.444031 148.978516,496.535492 
	C148.978516,505.181824 148.921219,513.828796 149.012314,522.474182 
	C149.040833,525.180298 148.440918,526.864014 145.335602,527.260620 
	C144.092850,527.419312 143.015686,528.874817 141.863159,529.740051 
	C142.104965,530.093994 142.346771,530.447937 142.588577,530.801880 
	C150.356705,530.801880 158.124832,530.801880 165.892960,530.801880 
	C165.511551,528.971252 164.575760,527.522888 163.467880,527.376343 
	C159.885666,526.902832 158.965805,525.021301 158.901718,521.639771 
	C158.731400,512.653992 158.335007,503.666290 157.747330,494.697784 
	C157.530151,491.383667 158.059296,489.276215 161.740723,488.602448 
	C162.942657,488.382446 163.938705,487.037445 165.028915,486.206940 
	C164.849030,485.797119 164.669144,485.387299 164.489258,484.977478 
	C160.707428,484.977478 156.888550,485.307587 153.153809,484.888245 
	C149.099579,484.433044 147.288925,486.095947 145.840179,489.700073 
	C142.351547,498.378967 138.428284,506.883179 134.273041,516.389587 
	C132.959793,513.908264 132.139999,512.524719 131.472885,511.071075 
	C128.008469,503.522095 124.668694,495.913940 121.067192,488.431458 
	C120.395561,487.036102 118.796906,485.240723 117.507294,485.139221 
	C112.591034,484.752380 107.626175,484.983124 102.679482,484.983124 
	C103.064217,486.942596 103.960655,488.457642 104.928848,488.504944 
	C109.310463,488.719116 109.444511,491.547302 109.338730,494.763763 
	C109.180031,499.589203 109.088890,504.416870 108.891121,510.187653 
M314.474640,511.032501 
	C315.327545,496.732910 307.062683,485.670563 293.279541,484.537689 
	C283.923584,483.768677 274.405640,484.838806 264.971588,485.314392 
	C263.754456,485.375732 262.606323,486.807129 261.426208,487.603882 
	C261.651764,487.998413 261.877289,488.392944 262.102814,488.787445 
	C264.345398,488.964874 266.587952,489.142273 269.196014,489.348602 
	C269.196014,500.148804 269.049530,510.614502 269.271484,521.072388 
	C269.354828,524.999634 268.441101,527.477966 264.184174,528.044006 
	C263.264587,528.166321 262.466492,529.202209 261.612457,529.817261 
	C261.778809,530.217590 261.945160,530.617859 262.111511,531.018188 
	C272.042603,531.018188 281.973907,531.059204 291.904724,531.007690 
	C303.931061,530.945251 312.191589,523.858765 314.474640,511.032501 
M222.305435,506.188446 
	C230.120712,513.920959 237.859650,521.733521 245.814896,529.319214 
	C247.429764,530.859070 249.860611,531.543152 251.902939,532.615234 
	C251.902939,519.433838 252.027298,507.462250 251.826889,495.496094 
	C251.767014,491.921600 252.121735,489.372345 256.291962,488.657837 
	C257.187805,488.504333 257.809875,486.752991 258.829529,485.369385 
	C251.987488,485.369385 246.279922,485.369385 240.572357,485.369385 
	C240.384338,485.823395 240.196304,486.277405 240.008286,486.731415 
	C241.301956,487.482452 242.686890,488.114410 243.864410,489.017029 
	C245.121780,489.980804 247.070892,491.114349 247.187469,492.321625 
	C247.992798,500.661041 248.398254,509.039124 248.993820,518.370117 
	C247.132187,516.671997 246.024216,515.721619 244.983490,514.702515 
	C235.819778,505.729492 226.698273,496.712921 217.476791,487.799713 
	C216.239532,486.603851 214.563889,485.223969 213.007477,485.113953 
	C208.111359,484.767822 203.175308,484.986481 198.254715,484.986481 
	C198.082321,485.441193 197.909943,485.895905 197.737549,486.350616 
	C198.843216,487.118378 199.866135,488.360291 201.069138,488.570160 
	C205.781204,489.392273 207.305984,492.199890 207.225494,496.693115 
	C207.067444,505.517548 207.094315,514.347351 207.192429,523.173218 
	C207.227600,526.337158 206.562973,528.334717 202.790726,528.067017 
	C201.803482,527.996948 200.738510,529.022217 199.709244,529.544495 
	C199.893677,529.962891 200.078110,530.381348 200.262558,530.799805 
	C206.696762,530.799805 213.130981,530.799805 219.565201,530.799805 
	C219.768646,530.313049 219.972092,529.826294 220.175537,529.339600 
	C218.776505,528.670715 217.339233,528.070129 215.989136,527.313904 
	C214.606537,526.539551 212.177368,525.648010 212.149445,524.747498 
	C211.863968,515.541626 211.974686,506.323486 211.974686,496.805237 
	C215.226059,499.744263 218.514648,502.716888 222.305435,506.188446 
M502.560852,483.984070 
	C492.754364,484.186401 484.708130,487.711945 479.892181,496.658295 
	C473.900085,507.789612 477.724426,521.883240 488.331451,528.625244 
	C498.800903,535.279846 516.382751,532.566467 523.792847,523.012268 
	C529.808228,515.256287 531.067932,506.656525 526.938721,497.724579 
	C522.377869,487.858765 513.954590,484.042297 502.560852,483.984070 
M444.938354,490.304626 
	C440.669464,501.292633 436.319275,512.250244 432.188324,523.289795 
	C431.144562,526.079224 429.807373,527.836487 426.643494,528.075256 
	C425.654114,528.149780 424.743835,529.273071 423.797363,529.916260 
	C423.968323,530.283325 424.139252,530.650391 424.310211,531.017456 
	C427.289490,531.017456 430.268738,531.017456 433.247986,531.017456 
	C436.159088,531.017456 439.070190,531.017456 441.981293,531.017456 
	C442.146881,530.447937 442.312500,529.878418 442.478119,529.308899 
	C440.293671,528.382324 438.109222,527.455688 435.072693,526.167664 
	C438.941010,522.758545 435.527649,515.062012 443.622986,515.001160 
	C454.613129,514.918518 454.619995,514.875732 457.503479,526.721802 
	C455.305817,527.667480 453.152283,528.594177 450.998718,529.520874 
	C451.137787,529.911194 451.276825,530.301575 451.415894,530.691895 
	C459.219757,530.691895 467.023590,530.691895 475.162262,530.691895 
	C474.874298,529.726868 474.748627,528.624634 474.508148,528.598877 
	C467.677460,527.870483 467.094513,521.986084 465.114380,517.295715 
	C460.915894,507.350708 456.833923,497.355530 452.518860,487.461761 
	C451.912811,486.072174 450.263550,485.137573 449.097168,483.992371 
	C448.033600,485.233490 446.924866,486.439789 445.928986,487.733063 
	C445.537598,488.241333 445.398651,488.944031 444.938354,490.304626 
M191.101105,484.973816 
	C184.475021,484.973816 177.848923,484.973816 171.222839,484.973816 
	C171.437927,486.716278 172.201141,487.933685 172.952835,487.926636 
	C177.226685,487.886536 177.707870,490.573639 177.663330,493.857330 
	C177.530350,503.663544 177.352600,513.470398 177.373291,523.276550 
	C177.378860,525.921570 176.280060,527.119812 173.903717,527.838684 
	C172.722153,528.196045 171.735168,529.196655 170.660156,529.906311 
	C170.847046,530.164124 171.033936,530.421997 171.220810,530.679810 
	C178.756927,530.679810 186.293030,530.679810 193.829132,530.679810 
	C194.001434,530.203003 194.173721,529.726135 194.346008,529.249329 
	C192.145767,528.259094 189.945526,527.268860 187.579285,526.203918 
	C187.579285,520.104004 187.579285,513.957825 187.579285,507.811707 
	C187.579285,501.692352 187.579285,495.572998 187.579285,489.494537 
	C189.672760,488.859772 191.440933,488.693268 192.759064,487.835327 
	C194.629471,486.617920 194.837814,485.254425 191.101105,484.973816 
z"/>
<path fill="#F7F9F9" opacity="1.000000" stroke="none" 
	d="
M334.029907,145.921906 
	C338.732300,140.446487 343.620270,135.112427 347.986481,129.380890 
	C348.901184,128.180161 347.893921,125.515282 347.772339,123.525101 
	C345.943085,123.798752 343.674622,123.476227 342.358185,124.446030 
	C335.522858,129.481476 328.520020,129.888535 320.462799,126.170052 
	C324.340881,122.888618 327.404602,118.856346 331.419678,117.335213 
	C334.896301,116.018059 339.452911,117.540627 343.530914,117.825890 
	C345.773743,117.982780 348.014008,118.176559 350.845673,118.171295 
	C351.435913,117.988876 351.904938,117.973793 351.904938,117.973793 
	C351.835175,118.920418 351.450562,119.981445 351.746307,120.795258 
	C353.796600,126.437683 353.479492,131.808182 350.745697,135.840286 
	C355.199982,138.120987 360.688995,139.376816 363.542175,142.818054 
	C366.554413,146.451157 367.053162,152.168182 368.891357,157.701599 
	C365.258575,157.701599 362.889282,157.701599 359.875336,157.701599 
	C360.113251,160.682297 360.313293,163.188751 360.562439,166.310455 
	C365.123901,164.142365 369.032257,162.468002 372.715149,160.393372 
	C373.540314,159.928558 373.716522,158.087677 373.945953,156.835312 
	C374.443878,154.117462 374.783203,151.370529 375.187378,148.635498 
	C375.867401,148.557678 376.547394,148.479858 377.227386,148.402039 
	C378.533020,151.063522 379.838654,153.725006 381.128510,156.354294 
	C384.001099,155.817596 386.876282,155.280396 388.637177,154.951401 
	C390.683685,151.019531 392.425629,147.672821 394.583862,143.526352 
	C398.620483,148.471985 398.693542,151.848740 394.557861,155.090164 
	C399.574036,158.542404 405.322266,161.259628 402.123688,169.287079 
	C401.382324,168.214493 400.640930,167.141907 399.922852,166.102982 
	C399.574310,166.122437 399.163330,166.020798 399.022949,166.171417 
	C395.237579,170.231140 393.931702,165.894867 391.809021,164.114029 
	C390.496552,163.012924 388.600525,160.984589 387.660309,161.319641 
	C380.236298,163.965195 372.979401,167.079727 365.054291,170.300690 
	C371.537445,173.717072 376.978424,176.584274 383.783936,180.170532 
	C380.898834,181.527512 379.139923,183.132828 377.634430,182.922668 
	C372.298920,182.177856 366.727112,181.565857 361.856598,179.477051 
	C356.707214,177.268646 356.771790,176.623337 353.631439,181.620453 
	C355.143616,183.038208 356.588715,184.393127 358.033813,185.748032 
	C355.652557,186.086533 353.267731,186.401932 350.891632,186.773422 
	C349.728851,186.955215 348.059845,186.835876 347.510712,187.543808 
	C342.859314,193.539917 338.413452,199.695419 333.173401,206.795654 
	C335.498474,206.353058 336.690277,206.185684 337.851196,205.895020 
	C343.317047,204.526489 348.715210,202.779877 354.250916,201.827301 
	C360.198822,200.803787 363.741699,198.012726 365.222443,191.961273 
	C366.810944,185.469238 367.988007,184.978409 374.694427,185.402084 
	C377.965881,190.183472 374.019836,193.265244 370.870239,197.728485 
	C376.708679,197.107910 381.316010,196.618195 386.036163,196.116486 
	C382.559357,184.911484 386.050018,176.408493 395.961761,170.810654 
	C398.366730,169.452408 400.263275,169.499969 401.906555,172.020706 
	C405.957275,178.234406 405.589661,182.937790 400.453278,188.360718 
	C399.705841,189.149872 398.883331,189.867905 398.021912,190.689056 
	C406.199371,193.042130 421.813873,180.658844 423.017975,170.673813 
	C420.902679,171.150421 418.933533,171.773926 416.920013,171.997269 
	C414.899414,172.221390 412.834595,172.046570 410.581757,172.046570 
	C412.106689,165.923920 415.274414,163.391296 422.864807,161.254974 
	C421.779388,160.790359 420.598694,160.469162 419.631470,159.826630 
	C418.271454,158.923141 417.069824,157.781174 416.039917,158.140869 
	C413.000641,159.367325 409.961334,160.593765 406.922058,161.820221 
	C407.856140,158.861526 408.790222,155.902817 409.724304,152.944122 
	C410.200256,153.024460 410.676239,153.104782 411.152191,153.185120 
	C410.070099,151.653488 408.988007,150.121841 407.905914,148.590210 
	C408.193817,148.118347 408.481750,147.646500 408.769653,147.174652 
	C410.827240,148.274673 414.308838,149.015839 414.692383,150.537750 
	C416.235992,156.662659 421.946808,157.248154 426.092621,160.727158 
	C427.072693,158.260727 427.747742,156.114258 428.748901,154.132553 
	C431.067963,149.542236 436.673279,146.532959 437.864807,148.940552 
	C439.408966,152.060577 439.971924,156.689728 438.773956,159.838562 
	C437.701843,162.656570 433.674591,164.355652 430.938812,166.532822 
	C429.784088,167.451767 428.597534,168.330765 427.425446,169.227921 
	C427.659668,169.742752 427.893921,170.257599 428.128174,170.772430 
	C430.705536,170.772430 433.311249,170.552170 435.846588,170.878632 
	C436.891022,171.013092 438.467163,172.252014 438.557343,173.118164 
	C438.651001,174.017349 437.409332,175.319183 436.437256,175.988083 
	C435.548859,176.599426 434.123749,177.051697 433.135498,176.796890 
	C426.407928,175.062256 425.053040,179.392822 424.153809,184.794083 
	C431.584412,185.813583 436.581390,189.729279 438.224762,197.321381 
	C430.286835,201.170410 424.397675,198.910019 418.716461,190.081772 
	C409.973755,193.838882 401.246582,197.589325 392.892761,201.179321 
	C395.282623,203.846680 398.383911,206.584457 400.561371,209.924515 
	C403.185455,213.949646 401.584503,216.259750 396.822083,216.014679 
	C389.552063,215.640594 384.164215,212.099701 380.813416,205.726410 
	C379.444061,203.121948 378.018860,202.740860 375.273193,203.580414 
	C367.485321,205.961670 359.536163,207.814301 351.743073,210.180084 
	C341.494476,213.291306 334.292908,220.362595 330.751312,230.077118 
	C329.005920,234.864670 330.110168,240.812042 330.470764,246.198029 
	C330.666260,249.117615 332.108490,251.936005 332.815826,254.842026 
	C336.391449,269.532257 343.718506,274.395050 360.891754,277.156189 
	C364.615723,277.754944 368.355652,278.749664 371.852844,280.149902 
	C377.371735,282.359619 382.473419,285.893433 388.141571,287.388428 
	C399.364014,290.348480 407.084991,298.659882 416.996094,304.239044 
	C414.184296,304.330048 412.003601,304.400635 409.822906,304.471222 
	C410.985748,305.710907 412.148590,306.950623 413.311432,308.190308 
	C410.439880,307.741089 407.736237,303.041412 405.458344,307.138123 
	C403.911774,304.263855 402.283020,301.236786 400.654266,298.209747 
	C400.084259,298.400665 399.514252,298.591583 398.944214,298.782501 
	C398.432556,300.151733 397.920898,301.520966 397.125000,303.650726 
	C393.989166,291.792114 384.520355,291.118378 375.766571,289.249084 
	C375.437469,289.755676 375.108337,290.262299 374.779236,290.768890 
	C377.854309,292.778748 380.929382,294.788605 384.590240,297.181335 
	C382.539886,297.053345 381.083344,296.962463 379.541931,296.866241 
	C381.377747,304.190308 391.737335,299.732239 393.187042,306.736877 
	C389.855408,305.990570 386.419128,305.707123 383.425323,304.405823 
	C380.730103,303.234314 378.230499,301.226654 376.162659,299.087097 
	C372.924835,295.736938 370.123505,291.964905 366.562714,288.778412 
	C364.935028,295.213379 375.751923,298.420807 370.955139,304.148346 
	C367.358398,304.723938 365.076080,305.089203 362.405823,305.516541 
	C363.604553,298.669983 358.229553,296.406982 351.672272,293.768066 
	C352.458038,296.645111 353.018860,298.698517 353.579681,300.751923 
	C353.291626,301.033966 353.003571,301.316010 352.715515,301.598053 
	C351.384430,300.076721 349.642883,298.743408 348.836212,296.981964 
	C348.007538,295.172516 348.091980,292.944916 347.776855,290.900299 
	C347.185394,290.959259 346.593933,291.018219 346.002472,291.077179 
	C346.107849,293.233337 346.409637,295.405579 346.235260,297.538910 
	C346.149017,298.593842 345.185120,299.577057 344.288452,299.938477 
	C343.541016,297.445251 343.123474,295.606262 342.684814,293.377686 
	C340.025970,287.870941 337.388245,282.753845 334.456024,277.065430 
	C332.284851,282.257233 331.245697,286.412354 336.405853,289.703491 
	C338.187012,290.839508 339.607422,292.541138 341.143860,294.372559 
	C338.447845,298.496735 341.046722,301.125946 343.020538,303.887024 
	C343.638367,305.692993 344.256195,307.498962 344.874023,309.304932 
	C337.797180,304.721497 334.376434,297.773010 332.432861,289.664276 
	C330.714569,294.780365 329.291840,299.016388 327.869110,303.252380 
	C327.166809,303.400879 326.464508,303.549408 325.762177,303.697937 
	C327.159882,304.195526 328.557617,304.693115 329.955322,305.190674 
	C329.511963,305.808044 329.068634,306.425415 328.625275,307.042786 
	C327.106598,306.307617 325.587921,305.572479 323.954193,304.781616 
	C322.237488,306.285065 320.463959,307.838257 318.690399,309.391479 
	C318.301331,309.149689 317.912262,308.907867 317.523193,308.666046 
	C321.938507,304.005402 320.646057,299.511963 318.395874,295.337189 
	C316.713104,298.804474 315.038574,302.254791 313.364044,305.705139 
	C313.014679,305.490021 312.665283,305.274933 312.315918,305.059845 
	C313.290588,298.907776 314.265259,292.755707 315.239960,286.603638 
	C311.973236,292.521088 304.854126,295.493469 303.794495,303.076111 
	C303.369019,306.120819 300.515930,308.975952 298.327240,311.541504 
	C297.583954,312.412781 295.488556,312.130554 293.745422,311.680634 
	C297.617493,309.166321 302.312073,307.732788 300.760803,301.132629 
	C304.609772,295.458771 301.663757,291.114563 299.832367,285.973969 
	C298.143707,287.366486 297.035919,288.279999 296.749756,288.515991 
	C297.688019,293.206909 298.471130,297.122253 299.254242,301.037598 
	C298.081360,302.941345 296.908447,304.845093 295.735535,306.748840 
	C295.430389,306.535675 295.125244,306.322479 294.820099,306.109314 
	C294.820099,302.718628 294.820099,299.327942 294.820099,294.501251 
	C291.530548,297.115662 289.614227,298.638702 287.697876,300.161743 
	C287.403839,299.890778 287.109772,299.619812 286.815735,299.348877 
	C288.413116,297.112518 290.010529,294.876190 292.303986,291.665375 
	C285.921631,291.743225 284.747467,295.947540 283.404114,299.316284 
	C282.043549,302.728271 281.575775,306.496307 280.716980,310.108398 
	C280.251892,310.038208 279.786804,309.968018 279.321716,309.897858 
	C279.394684,308.490845 279.467651,307.083832 279.570557,305.099579 
	C278.421143,305.820923 277.539307,306.374359 276.457001,307.053619 
	C277.271027,302.109039 278.027039,297.516602 278.640991,293.787140 
	C282.532501,289.143433 286.222809,284.739838 290.508331,279.625977 
	C283.547546,279.422028 270.022278,290.152924 267.906372,295.867584 
	C259.969910,296.316650 259.524353,303.701172 255.068726,307.717194 
	C255.289993,305.207428 255.511261,302.697693 255.364700,299.585236 
	C254.962677,298.211060 254.928467,297.439575 254.881241,296.374542 
	C252.761871,297.714813 250.958450,298.855255 249.155029,299.995728 
	C249.289932,298.521332 249.424850,297.046936 249.575943,295.395599 
	C253.940201,292.349548 260.509186,291.512878 261.166107,283.626343 
	C258.365845,285.358063 255.585236,287.122650 252.760849,288.814087 
	C248.150955,291.574829 243.370636,294.083191 238.966003,297.136261 
	C237.500427,298.152161 236.853439,300.462067 236.037277,302.272827 
	C235.036896,304.492279 234.251755,306.808716 232.280426,308.654236 
	C232.502518,306.193787 232.724609,303.733368 232.946701,301.272919 
	C232.486938,301.072357 232.027176,300.871826 231.567413,300.671265 
	C229.754318,303.054230 228.052765,305.537628 226.055649,307.754852 
	C225.503876,308.367432 224.072067,308.187408 223.044037,308.371063 
	C223.363190,307.581665 223.682343,306.792236 224.513992,305.523010 
	C224.514328,304.815002 224.002182,304.586792 223.490021,304.358582 
	C221.062164,305.632751 218.634308,306.906891 216.206451,308.181030 
	C215.933701,307.871246 215.660950,307.561462 215.388184,307.251678 
	C216.295395,305.967834 217.202606,304.684021 218.404861,302.982666 
	C216.455811,302.982666 214.976929,302.982666 213.498047,302.982666 
	C213.348221,302.663879 213.198380,302.345062 213.048553,302.026276 
	C219.636078,297.498138 226.223618,292.970032 232.959854,288.339691 
	C232.807220,288.241333 232.153168,287.819824 230.129791,286.515808 
	C239.565018,283.937042 247.987076,281.705536 256.367493,279.327240 
	C267.379761,276.202057 278.425171,273.163422 289.302429,269.615631 
	C291.751007,268.816986 294.186096,266.443848 295.566772,264.155579 
	C303.904449,250.337051 305.554749,225.236420 284.452820,214.231506 
	C277.965698,210.848404 270.298889,209.647781 263.075134,207.834732 
	C261.867188,207.531570 259.919647,208.950943 258.741302,210.037796 
	C256.925293,211.712799 255.767105,214.184158 253.812820,215.608017 
	C250.222778,218.223602 246.755646,221.682800 241.495255,218.040939 
	C239.434326,216.614120 236.235184,216.831360 233.554428,216.299835 
	C233.390457,215.808502 233.226501,215.317169 233.062546,214.825821 
	C237.520981,211.602646 241.979401,208.379456 246.434555,205.158646 
	C240.676743,202.723892 234.470993,200.099716 228.168701,197.434708 
	C222.776718,205.044571 217.823593,206.369797 211.202347,201.539062 
	C213.848511,196.255463 218.550949,194.322510 224.202835,193.791473 
	C222.823593,189.533340 221.526993,185.530334 220.227341,181.517914 
	C207.179260,185.244064 195.644363,180.199722 192.410004,169.328903 
	C199.829819,164.574280 209.195312,166.115524 220.680771,173.986053 
	C220.985641,173.885147 221.421906,173.873215 221.572708,173.659698 
	C228.307617,164.123566 228.702713,163.908997 240.111008,166.649292 
	C250.915863,169.244629 259.608093,174.268173 262.359619,186.192856 
	C263.094879,189.379395 262.487000,190.892487 259.080902,191.236710 
	C249.379517,192.217117 240.948273,189.584305 234.134308,182.529388 
	C230.662750,178.935074 230.158081,175.820679 231.225937,169.144867 
	C223.949387,171.611893 222.464844,183.194214 227.884018,190.129959 
	C230.116104,188.708908 233.569214,185.710831 234.217468,186.228058 
	C238.310455,189.493881 234.830826,192.534485 232.015945,196.035370 
	C237.787491,197.782562 242.754227,199.286118 247.631348,200.762543 
	C248.578629,197.900208 249.284164,195.768372 249.989685,193.636551 
	C250.592880,193.558472 251.196060,193.480392 251.799240,193.402313 
	C253.148743,195.954819 254.498245,198.507339 256.168579,201.666718 
	C257.399353,201.666718 259.489532,201.666718 261.543274,201.666718 
	C262.274109,198.762497 262.666687,195.783585 263.774994,193.100311 
	C265.937286,187.865173 271.874237,184.741638 277.279846,186.079071 
	C278.522003,186.386383 280.065521,188.431854 280.180298,189.786697 
	C280.528076,193.891418 278.761566,197.209930 275.004791,199.280136 
	C273.448486,200.137772 271.935211,201.073395 269.836304,202.305939 
	C274.631134,203.666061 278.799591,204.848511 282.702148,205.955536 
	C284.372437,202.774750 285.960419,199.750687 287.548431,196.726624 
	C288.022461,196.836441 288.496490,196.946243 288.970551,197.056061 
	C290.470764,201.368301 291.970978,205.680542 293.471191,209.992767 
	C293.006836,210.177155 292.542511,210.361557 292.078156,210.545944 
	C294.907715,212.592682 297.737274,214.639420 300.566833,216.686142 
	C300.955322,216.520874 301.343811,216.355591 301.732300,216.190323 
	C300.824402,211.770462 300.150635,207.284927 298.934906,202.951401 
	C297.952820,199.450668 296.339233,196.124390 294.965698,192.736969 
	C293.620483,189.419357 293.007538,185.500168 287.437408,187.865067 
	C286.082825,188.440170 283.282532,185.610001 279.835754,183.569244 
	C283.584473,182.123947 285.659424,181.323959 288.322327,180.297272 
	C284.490417,175.660477 280.831787,170.986572 276.833282,166.624176 
	C276.119781,165.845764 273.931946,166.043076 272.538605,166.334198 
	C268.421661,167.194397 264.454529,167.706100 260.409882,164.648117 
	C263.762604,160.357956 267.786865,160.952301 272.760773,161.952911 
	C270.514679,157.416901 268.543213,153.435547 266.129639,148.561401 
	C261.150208,155.309692 254.982864,159.266968 247.203979,157.871078 
	C243.220581,157.156265 239.631378,154.244751 235.825272,152.306320 
	C241.383896,142.857727 248.010345,138.955429 260.776489,137.119797 
	C260.768982,133.873444 259.032379,133.686829 256.293091,134.017761 
	C254.194580,134.271271 251.975327,133.525650 249.809784,133.224411 
	C249.697815,132.727066 249.585831,132.229736 249.473862,131.732391 
	C250.925659,130.633530 252.377472,129.534668 254.061615,128.259964 
	C252.418793,126.266792 250.697113,124.952904 247.736664,127.690948 
	C246.918793,127.985077 246.567581,127.989113 246.216354,127.993149 
	C245.908875,122.388695 250.292389,123.517128 253.715347,122.948868 
	C253.715347,120.038506 253.286392,117.047539 253.841629,114.252052 
	C254.349228,111.696442 255.921555,109.352325 257.428314,106.023109 
	C262.328796,111.972748 265.428955,116.965668 262.864044,123.703568 
	C261.832031,126.414665 260.929413,129.163681 263.269714,130.373749 
	C268.736420,122.866631 274.026886,115.601547 279.461060,108.139137 
	C278.792511,107.718887 277.280060,107.189987 276.445251,106.128273 
	C275.558655,105.000648 275.314850,103.367615 274.790314,101.955292 
	C276.405914,101.860199 278.319855,101.181480 279.562164,101.816582 
	C281.142120,102.624321 282.177948,104.496437 283.622986,106.103905 
	C284.620087,105.699631 285.841888,105.231094 287.042389,104.713135 
	C294.937286,101.306801 300.723450,104.737274 302.013611,113.156281 
	C302.362732,115.434578 303.734009,118.082840 305.488251,119.524025 
	C311.645020,124.581963 314.836517,135.125534 304.734375,141.188339 
	C301.353180,143.217575 298.353180,145.953827 295.415985,148.627319 
	C293.252319,150.596695 291.393402,150.522308 290.156616,148.121338 
	C287.705719,143.363251 284.541931,138.585297 283.760864,133.495148 
	C283.269775,130.294556 286.052826,126.115181 288.339539,123.116547 
	C290.146423,120.747154 293.440643,119.515900 296.064697,117.764717 
	C298.853607,115.903519 299.657318,113.445648 297.983948,110.466789 
	C296.392090,107.632927 294.046844,106.419014 290.879181,107.902496 
	C288.205048,109.154854 285.590881,110.535347 281.900421,112.385376 
	C284.793793,114.225677 286.961945,115.604706 289.130066,116.983727 
	C288.688843,117.775040 288.247620,118.566353 287.806427,119.357658 
	C285.633118,119.053490 283.459900,118.519279 281.286530,118.518715 
	C279.580933,118.518272 277.221802,118.591545 276.279236,119.642334 
	C271.444061,125.032654 270.514984,132.503601 273.339722,139.878159 
	C276.025085,139.031265 278.744476,138.173645 281.711029,137.238083 
	C283.225006,142.862885 279.926636,145.091232 275.819519,147.535370 
	C278.965271,151.941971 281.974945,156.157928 285.439453,161.011032 
	C290.046814,152.974869 296.904602,152.103333 304.335205,153.530960 
	C306.233582,153.895691 307.870544,155.621002 309.627594,156.721222 
	C308.565979,158.328979 307.863647,160.538696 306.373322,161.428162 
	C302.389862,163.805542 298.068207,165.616196 293.602631,167.787354 
	C296.186951,170.338501 299.347595,173.458557 302.963470,177.028015 
	C307.880585,171.574158 312.729095,166.196411 317.780243,160.593872 
	C313.715515,157.431534 310.832275,154.009674 312.376312,147.776871 
	C316.267670,150.268585 319.757812,152.503387 323.719391,155.040085 
	C325.882751,153.185333 328.488831,150.951035 331.028503,148.359940 
	C330.962097,148.003143 330.973999,148.064850 331.308472,148.169250 
	C331.865631,148.203125 332.088287,148.132568 332.533142,147.893890 
	C333.180206,147.124466 333.605042,146.523178 334.029907,145.921906 
M260.888916,294.992371 
	C266.815796,290.456055 272.742676,285.919739 278.669556,281.383423 
	C278.267334,280.865936 277.865143,280.348450 277.462921,279.830994 
	C269.204315,281.786346 264.056641,287.871765 258.814148,294.638947 
	C258.673279,295.149841 258.532410,295.660706 258.391541,296.171570 
	C259.012543,295.867065 259.633545,295.562531 260.888916,294.992371 
M218.987442,301.910645 
	C218.628403,302.425690 218.269363,302.940735 217.910324,303.455780 
	C218.608017,303.309692 219.305695,303.163574 220.762024,302.988525 
	C229.597626,299.706726 237.456375,294.838593 244.481384,288.513031 
	C241.886307,288.616058 239.760788,289.582642 237.776794,290.783142 
	C231.800156,294.399536 225.878586,298.106964 218.987442,301.910645 
M328.765747,189.271011 
	C332.246002,186.529312 335.726227,183.787628 338.666565,181.471252 
	C338.352295,178.051971 338.085022,175.144333 337.817780,172.236679 
	C338.450500,171.977890 339.083221,171.719086 339.715912,171.460297 
	C341.079315,173.186935 342.442749,174.913589 343.942810,176.813309 
	C346.082153,175.243973 348.577148,173.413757 351.125732,171.544235 
	C343.130585,164.789597 343.065979,163.441589 350.126953,152.545349 
	C348.372223,150.482193 346.576324,148.370651 344.778687,146.257080 
	C328.097412,160.054413 316.009369,175.847137 317.178680,183.709122 
	C318.779999,181.681091 319.760620,180.163696 321.010773,178.916504 
	C323.233063,176.699432 325.337769,174.136383 328.012146,172.662292 
	C330.902313,171.069260 332.625397,172.818619 332.731720,176.107498 
	C332.894775,181.152115 330.342255,183.260513 324.196564,184.161560 
	C322.066864,184.473816 319.558655,186.043747 318.442719,187.809753 
	C317.885620,188.691406 319.615448,191.983337 321.115021,193.007172 
	C324.719635,195.468185 326.034454,191.305969 328.765747,189.271011 
M353.074341,290.457886 
	C356.248627,292.030762 359.422913,293.603607 362.860382,295.306854 
	C361.474945,288.030182 349.854645,280.841888 341.156769,282.882263 
	C344.907623,285.295227 348.658447,287.708221 353.074341,290.457886 
M309.252441,276.177399 
	C304.989716,278.600037 303.996216,283.697205 306.775360,288.886230 
	C312.032593,284.641479 312.797363,281.616638 309.252441,276.177399 
M316.055542,278.422150 
	C317.560425,281.287445 319.065338,284.152771 320.570221,287.018097 
	C321.044739,286.803497 321.519257,286.588898 321.993774,286.374298 
	C321.261719,283.571411 320.787018,280.662415 319.693237,278.008575 
	C319.112152,276.598816 317.547089,274.509949 316.055542,278.422150 
z"/>
<path fill="#FBFCFC" opacity="1.000000" stroke="none" 
	d="
M199.623627,376.537598 
	C199.627502,390.419708 199.627502,403.880310 199.627502,417.162903 
	C194.331070,418.871002 192.017105,417.801392 190.665192,413.127960 
	C187.626022,402.621948 187.277512,402.478516 176.127533,401.798859 
	C169.154205,401.373840 162.154388,401.369202 155.165497,401.220520 
	C151.573929,401.144043 149.798813,402.612335 149.927063,406.563812 
	C150.326706,418.878662 150.521286,431.201263 150.677277,443.522369 
	C150.729233,447.625671 152.779922,449.568604 156.646027,450.051483 
	C159.618149,450.422699 162.574829,450.925323 165.551193,451.253021 
	C170.129623,451.757141 171.994064,453.949158 170.360855,458.602783 
	C149.091888,458.602783 127.880554,458.602783 106.587860,458.602783 
	C106.587860,456.612671 106.587860,454.680969 106.587860,452.500244 
	C111.444504,451.393829 116.075966,450.185669 120.770981,449.323761 
	C123.814217,448.765137 125.036797,447.104797 125.065155,444.204163 
	C125.081436,442.539215 125.236824,440.873932 125.212791,439.210510 
	C124.813278,411.565002 124.291267,383.920502 124.088097,356.273651 
	C124.055832,351.884460 122.553452,349.885773 118.404770,349.337860 
	C116.438278,349.078156 114.536018,348.356964 112.573158,348.039764 
	C108.273773,347.344971 105.918854,345.376709 107.546455,340.468140 
	C141.078568,340.468140 174.811584,340.468140 209.395203,340.468140 
	C210.016083,348.841583 210.657974,357.498474 211.289444,366.014801 
	C203.547806,367.929749 202.468048,367.883728 200.264542,361.535492 
	C197.188828,352.674408 191.253204,349.534119 182.367920,350.058655 
	C173.558289,350.578674 164.723831,350.666016 155.903412,351.021301 
	C152.240555,351.168823 149.500763,352.295593 149.581436,356.834381 
	C149.764893,367.157349 149.794144,377.484161 149.768631,387.809113 
	C149.761398,390.736511 150.798660,392.064423 153.856888,391.928558 
	C162.832092,391.529846 171.829697,391.500519 180.786865,390.874023 
	C187.726883,390.388611 189.510880,388.321381 190.571503,381.263641 
	C190.866669,379.299500 191.019440,377.313965 191.257584,375.156616 
	C194.230682,374.119934 197.152023,372.659210 199.623627,376.537598 
z"/>
<path fill="#FBFCFC" opacity="1.000000" stroke="none" 
	d="
M313.928833,409.906494 
	C313.929138,412.699158 313.929138,415.006561 313.929138,417.448395 
	C309.430298,418.759247 307.037842,417.917480 305.671265,413.168640 
	C302.630798,402.603363 302.284454,402.456482 291.170441,401.809998 
	C283.868195,401.385193 276.537445,401.416748 269.218475,401.331360 
	C266.522980,401.299927 264.923279,402.424530 264.992523,405.513641 
	C265.272400,417.997650 265.487671,430.483978 265.595093,442.970551 
	C265.633575,447.443481 267.687408,449.704956 272.082825,450.126495 
	C274.896057,450.396271 277.680573,450.967438 280.494049,451.232574 
	C285.146667,451.671051 286.969482,453.884094 285.376526,458.601379 
	C264.139832,458.601379 242.931839,458.601379 221.573639,458.601379 
	C221.573639,456.670166 221.573639,454.744812 221.573639,452.457275 
	C225.250748,451.652100 228.768051,450.855835 232.296890,450.114502 
	C240.051743,448.485413 240.245605,448.386322 240.210968,440.293152 
	C240.137512,423.139099 240.018860,405.984497 239.777512,388.832153 
	C239.615891,377.344849 239.140488,365.862000 238.968842,354.374725 
	C238.929230,351.724365 237.937836,350.411743 235.416290,349.903961 
	C232.813187,349.379791 230.264877,348.584198 227.662384,348.056183 
	C223.612350,347.234528 220.581421,345.771606 222.758804,340.467712 
	C256.022308,340.467712 289.727875,340.467712 324.391632,340.467712 
	C325.018738,348.774902 325.671326,357.419983 326.312103,365.908295 
	C318.856750,368.035614 317.465088,367.855896 315.310669,361.645264 
	C312.257812,352.844543 306.437012,349.518494 297.492371,350.059174 
	C288.685974,350.591553 279.852386,350.660797 271.033844,351.011353 
	C267.426208,351.154724 264.518951,352.084106 264.593567,356.701630 
	C264.760406,367.022949 264.814331,377.347839 264.748260,387.670227 
	C264.727356,390.937561 266.037415,392.091675 269.210663,391.944244 
	C278.017212,391.535034 286.848938,391.527344 295.636292,390.887970 
	C303.325684,390.328552 305.126129,388.098297 305.818909,378.435303 
	C306.060211,375.069733 307.567902,374.123474 310.351868,374.037537 
	C313.328217,373.945648 314.793793,374.993042 314.645233,378.462433 
	C314.203735,388.773376 314.139954,399.100464 313.928833,409.906494 
z"/>
<path fill="#FBFCFC" opacity="1.000000" stroke="none" 
	d="
M450.681519,441.636292 
	C450.078522,450.996704 444.407806,455.023743 436.444458,456.881561 
	C417.815460,461.227600 399.080902,461.828552 380.638947,456.574646 
	C354.990204,449.267639 338.691040,424.294769 340.425781,396.206970 
	C342.664429,359.959808 368.064148,335.782227 404.354980,336.141541 
	C416.279022,336.259613 428.186371,338.089447 440.100616,339.144440 
	C443.598663,339.454224 445.688843,341.053864 446.506866,344.766754 
	C448.240082,352.633728 450.375336,360.412170 452.395782,368.425446 
	C446.139191,369.871216 442.481903,368.934418 439.077454,364.152313 
	C431.795868,353.924194 422.070374,346.953278 409.101349,345.416931 
	C396.763580,343.955322 386.874878,347.837341 379.710693,358.225708 
	C371.922699,369.518616 369.676117,382.370819 369.326538,395.656006 
	C369.001495,408.008850 369.628723,420.214264 375.469788,431.644073 
	C384.656830,449.621246 406.071838,456.615448 423.324921,446.080444 
	C429.840088,442.102142 435.545746,436.327484 440.507629,430.434662 
	C444.061890,426.213593 447.415436,424.100311 453.371185,425.427856 
	C452.518860,430.599487 451.643097,435.913452 450.681519,441.636292 
z"/>
<path fill="#FCFDFD" opacity="1.000000" stroke="none" 
	d="
M493.285278,338.809998 
	C504.052277,338.822052 514.346191,338.822052 524.929138,338.822052 
	C526.212830,342.702393 524.449036,344.721069 520.097046,345.978210 
	C508.089569,349.446564 508.565826,349.604095 508.639191,362.477814 
	C508.793823,389.612213 508.518402,416.750122 508.229980,443.884613 
	C508.192902,447.374817 508.879059,449.091797 512.656311,449.346832 
	C516.590698,449.612488 520.483276,450.498657 524.617676,451.148621 
	C524.617676,453.396179 524.617676,455.341827 524.617676,457.535645 
	C505.408569,457.535645 486.190887,457.535645 466.643890,457.535645 
	C466.643890,455.981964 466.643890,454.247803 466.643890,452.176239 
	C469.087616,451.495697 471.615051,450.766876 474.156006,450.088715 
	C482.470673,447.869659 482.988434,447.206787 483.011292,438.383148 
	C483.026825,432.388336 483.003204,426.393433 483.015442,420.398621 
	C483.060577,398.269897 482.973816,376.139313 483.270355,354.013885 
	C483.337097,349.033966 481.518524,346.967285 476.811615,346.840332 
	C475.822327,346.813690 474.845154,346.479736 473.853119,346.388367 
	C467.390686,345.793121 466.803772,346.998230 467.085510,338.797974 
	C475.665405,338.797974 484.238800,338.797974 493.285278,338.809998 
z"/>
<path fill="#F4F6F6" opacity="1.000000" stroke="none" 
	d="
M417.831238,493.430420 
	C417.847168,506.357483 417.847168,518.831360 417.847168,532.506531 
	C415.922150,531.532715 413.469513,530.913086 411.883972,529.390442 
	C400.600189,518.553894 389.493561,507.532898 377.393188,495.650116 
	C377.393188,502.969513 377.371094,508.968140 377.407532,514.966431 
	C377.417633,516.629456 377.651855,518.290039 377.695648,519.954102 
	C377.801208,523.965088 377.231934,528.382385 383.673553,527.541016 
	C384.391266,527.447266 385.318634,528.958923 387.147797,530.649292 
	C371.264526,530.649292 356.892975,530.649292 342.521393,530.649292 
	C342.338715,530.289612 342.156006,529.929993 341.973297,529.570312 
	C344.186615,528.594727 346.399902,527.619080 348.638245,526.632446 
	C345.099243,514.699341 344.473877,513.878723 333.430328,515.166809 
	C327.117462,515.903076 329.188171,522.647400 326.501740,526.217224 
	C329.237061,527.481750 331.369354,528.467529 333.501648,529.453308 
	C333.297333,529.876953 333.093018,530.300598 332.888702,530.724243 
	C326.999298,530.724243 321.109863,530.724243 313.856720,530.724243 
	C315.480072,529.288391 316.207703,528.101440 316.898804,528.122314 
	C321.166748,528.251282 322.423859,525.396545 323.662170,522.108032 
	C328.055267,510.441681 332.543182,498.809998 337.144501,487.224487 
	C337.650757,485.949768 339.101593,484.239044 340.146942,484.216125 
	C341.207733,484.192841 342.783966,485.807159 343.318420,487.054047 
	C348.295959,498.666809 353.112427,510.348877 357.943298,522.024170 
	C360.184875,527.441467 365.829559,530.028503 371.196411,527.707581 
	C372.158783,527.291382 373.011627,525.425049 373.030823,524.214294 
	C373.183777,514.555847 373.077911,504.893677 373.151123,495.233429 
	C373.180542,491.351715 371.050049,489.607880 367.606842,488.666229 
	C366.222565,488.287689 365.007690,487.289795 363.715698,486.573761 
	C363.891144,486.051117 364.066559,485.528442 364.242004,485.005798 
	C369.320007,485.005798 374.410065,484.813934 379.468201,485.131073 
	C380.856049,485.218048 382.314941,486.657074 383.458282,487.767120 
	C392.661377,496.702118 401.793396,505.710266 410.957458,514.685486 
	C412.000336,515.706909 413.106812,516.663330 414.994141,518.392212 
	C414.392853,508.890533 413.963257,500.359741 413.173981,491.862366 
	C413.076538,490.813080 411.124054,489.852783 409.918518,489.012939 
	C408.692596,488.158844 407.327332,487.504730 406.023071,486.763031 
	C406.204834,486.304871 406.386597,485.846680 406.568359,485.388519 
	C412.268860,485.388519 417.969360,485.388519 425.217834,485.388519 
	C423.706116,486.962769 422.782104,487.939789 421.841705,488.900787 
	C420.505920,490.265839 419.158051,491.619019 417.831238,493.430420 
M341.057343,506.550751 
	C339.947113,503.932434 338.836884,501.314087 337.361725,497.835144 
	C335.389557,503.043610 333.771973,507.315613 332.095398,511.743408 
	C335.860535,511.743408 339.219299,511.743408 342.931976,511.743408 
	C342.304138,510.030823 341.800873,508.658051 341.057343,506.550751 
z"/>
<path fill="#F3F6F5" opacity="1.000000" stroke="none" 
	d="
M108.930069,509.715637 
	C109.088890,504.416870 109.180031,499.589203 109.338730,494.763763 
	C109.444511,491.547302 109.310463,488.719116 104.928848,488.504944 
	C103.960655,488.457642 103.064217,486.942596 102.679482,484.983124 
	C107.626175,484.983124 112.591034,484.752380 117.507294,485.139221 
	C118.796906,485.240723 120.395561,487.036102 121.067192,488.431458 
	C124.668694,495.913940 128.008469,503.522095 131.472885,511.071075 
	C132.139999,512.524719 132.959793,513.908264 134.273041,516.389587 
	C138.428284,506.883179 142.351547,498.378967 145.840179,489.700073 
	C147.288925,486.095947 149.099579,484.433044 153.153809,484.888245 
	C156.888550,485.307587 160.707428,484.977478 164.489258,484.977478 
	C164.669144,485.387299 164.849030,485.797119 165.028915,486.206940 
	C163.938705,487.037445 162.942657,488.382446 161.740723,488.602448 
	C158.059296,489.276215 157.530151,491.383667 157.747330,494.697784 
	C158.335007,503.666290 158.731400,512.653992 158.901718,521.639771 
	C158.965805,525.021301 159.885666,526.902832 163.467880,527.376343 
	C164.575760,527.522888 165.511551,528.971252 165.892960,530.801880 
	C158.124832,530.801880 150.356705,530.801880 142.588577,530.801880 
	C142.346771,530.447937 142.104965,530.093994 141.863159,529.740051 
	C143.015686,528.874817 144.092850,527.419312 145.335602,527.260620 
	C148.440918,526.864014 149.040833,525.180298 149.012314,522.474182 
	C148.921219,513.828796 148.978516,505.181824 148.978516,496.535492 
	C148.489899,496.444031 148.001266,496.352600 147.512650,496.261169 
	C146.978104,497.082581 146.311157,497.847015 145.929291,498.734161 
	C141.662933,508.645660 137.474091,518.590698 133.155060,528.479004 
	C132.718231,529.479065 131.567551,530.167297 130.748138,531.000305 
	C129.951859,530.092773 128.891937,529.308716 128.400131,528.258545 
	C123.566566,517.937683 118.827454,507.572479 114.061546,497.219879 
	C113.511658,497.286621 112.961761,497.353333 112.411873,497.420074 
	C112.411873,505.920776 112.215897,514.430237 112.597656,522.913818 
	C112.664146,524.391479 115.094360,525.841064 116.569008,527.150208 
	C117.593445,528.059692 118.851067,528.706543 120.004517,529.470764 
	C119.841629,529.853699 119.678741,530.236694 119.515862,530.619629 
	C113.506882,530.619629 107.497902,530.619629 100.341125,530.619629 
	C101.671883,529.256470 102.357307,527.905334 103.211861,527.788208 
	C107.570229,527.190918 108.364548,524.361816 108.381416,520.658875 
	C108.397316,517.167725 108.709358,513.677979 108.930069,509.715637 
z"/>
<path fill="#F5F7F7" opacity="1.000000" stroke="none" 
	d="
M314.407593,511.447998 
	C312.191589,523.858765 303.931061,530.945251 291.904724,531.007690 
	C281.973907,531.059204 272.042603,531.018188 262.111511,531.018188 
	C261.945160,530.617859 261.778809,530.217590 261.612457,529.817261 
	C262.466492,529.202209 263.264587,528.166321 264.184174,528.044006 
	C268.441101,527.477966 269.354828,524.999634 269.271484,521.072388 
	C269.049530,510.614502 269.196014,500.148804 269.196014,489.348602 
	C266.587952,489.142273 264.345398,488.964874 262.102814,488.787445 
	C261.877289,488.392944 261.651764,487.998413 261.426208,487.603882 
	C262.606323,486.807129 263.754456,485.375732 264.971588,485.314392 
	C274.405640,484.838806 283.923584,483.768677 293.279541,484.537689 
	C307.062683,485.670563 315.327545,496.732910 314.407593,511.447998 
M299.719971,523.113708 
	C304.891479,514.640503 304.976166,505.628845 301.403809,496.804474 
	C297.871613,488.079468 287.573853,484.689606 279.329742,488.929199 
	C279.329742,498.971832 279.227936,509.104492 279.369202,519.233765 
	C279.449738,525.008545 282.294342,528.260315 287.956879,527.774658 
	C291.794373,527.445496 295.459778,525.110168 299.719971,523.113708 
z"/>
<path fill="#F3F6F5" opacity="1.000000" stroke="none" 
	d="
M222.054321,505.938965 
	C218.514648,502.716888 215.226059,499.744263 211.974686,496.805237 
	C211.974686,506.323486 211.863968,515.541626 212.149445,524.747498 
	C212.177368,525.648010 214.606537,526.539551 215.989136,527.313904 
	C217.339233,528.070129 218.776505,528.670715 220.175537,529.339600 
	C219.972092,529.826294 219.768646,530.313049 219.565201,530.799805 
	C213.130981,530.799805 206.696762,530.799805 200.262558,530.799805 
	C200.078110,530.381348 199.893677,529.962891 199.709244,529.544495 
	C200.738510,529.022217 201.803482,527.996948 202.790726,528.067017 
	C206.562973,528.334717 207.227600,526.337158 207.192429,523.173218 
	C207.094315,514.347351 207.067444,505.517548 207.225494,496.693115 
	C207.305984,492.199890 205.781204,489.392273 201.069138,488.570160 
	C199.866135,488.360291 198.843216,487.118378 197.737549,486.350616 
	C197.909943,485.895905 198.082321,485.441193 198.254715,484.986481 
	C203.175308,484.986481 208.111359,484.767822 213.007477,485.113953 
	C214.563889,485.223969 216.239532,486.603851 217.476791,487.799713 
	C226.698273,496.712921 235.819778,505.729492 244.983490,514.702515 
	C246.024216,515.721619 247.132187,516.671997 248.993820,518.370117 
	C248.398254,509.039124 247.992798,500.661041 247.187469,492.321625 
	C247.070892,491.114349 245.121780,489.980804 243.864410,489.017029 
	C242.686890,488.114410 241.301956,487.482452 240.008286,486.731415 
	C240.196304,486.277405 240.384338,485.823395 240.572357,485.369385 
	C246.279922,485.369385 251.987488,485.369385 258.829529,485.369385 
	C257.809875,486.752991 257.187805,488.504333 256.291962,488.657837 
	C252.121735,489.372345 251.767014,491.921600 251.826889,495.496094 
	C252.027298,507.462250 251.902939,519.433838 251.902939,532.615234 
	C249.860611,531.543152 247.429764,530.859070 245.814896,529.319214 
	C237.859650,521.733521 230.120712,513.920959 222.054321,505.938965 
z"/>
<path fill="#F6F8F7" opacity="1.000000" stroke="none" 
	d="
M503.022919,483.984131 
	C513.954590,484.042297 522.377869,487.858765 526.938721,497.724579 
	C531.067932,506.656525 529.808228,515.256287 523.792847,523.012268 
	C516.382751,532.566467 498.800903,535.279846 488.331451,528.625244 
	C477.724426,521.883240 473.900085,507.789612 479.892181,496.658295 
	C484.708130,487.711945 492.754364,484.186401 503.022919,483.984131 
M503.256805,487.020691 
	C495.989624,487.307220 491.862854,490.474701 490.055115,497.517883 
	C488.148315,504.947174 488.485565,512.354919 491.033295,519.603210 
	C493.161163,525.656921 497.666473,529.080933 503.143463,528.984192 
	C509.259613,528.876221 514.644836,525.307129 515.764465,518.929993 
	C516.834778,512.834229 516.875916,506.408783 516.336121,500.218353 
	C515.712402,493.065063 511.349792,488.477417 503.256805,487.020691 
z"/>
<path fill="#F6F8F7" opacity="1.000000" stroke="none" 
	d="
M445.041534,489.931427 
	C445.398651,488.944031 445.537598,488.241333 445.928986,487.733063 
	C446.924866,486.439789 448.033600,485.233490 449.097168,483.992371 
	C450.263550,485.137573 451.912811,486.072174 452.518860,487.461761 
	C456.833923,497.355530 460.915894,507.350708 465.114380,517.295715 
	C467.094513,521.986084 467.677460,527.870483 474.508148,528.598877 
	C474.748627,528.624634 474.874298,529.726868 475.162262,530.691895 
	C467.023590,530.691895 459.219757,530.691895 451.415894,530.691895 
	C451.276825,530.301575 451.137787,529.911194 450.998718,529.520874 
	C453.152283,528.594177 455.305817,527.667480 457.503479,526.721802 
	C454.619995,514.875732 454.613129,514.918518 443.622986,515.001160 
	C435.527649,515.062012 438.941010,522.758545 435.072693,526.167664 
	C438.109222,527.455688 440.293671,528.382324 442.478119,529.308899 
	C442.312500,529.878418 442.146881,530.447937 441.981293,531.017456 
	C439.070190,531.017456 436.159088,531.017456 433.247986,531.017456 
	C430.268738,531.017456 427.289490,531.017456 424.310211,531.017456 
	C424.139252,530.650391 423.968323,530.283325 423.797363,529.916260 
	C424.743835,529.273071 425.654114,528.149780 426.643494,528.075256 
	C429.807373,527.836487 431.144562,526.079224 432.188324,523.289795 
	C436.319275,512.250244 440.669464,501.292633 445.041534,489.931427 
M442.446320,507.992249 
	C442.060272,509.229858 441.674255,510.467499 441.283051,511.721710 
	C444.863770,511.721710 448.230255,511.721710 452.082855,511.721710 
	C450.207581,507.067963 448.499390,502.828888 446.452881,497.750244 
	C445.009583,501.478241 443.885712,504.381104 442.446320,507.992249 
z"/>
<path fill="#F1F4F4" opacity="1.000000" stroke="none" 
	d="
M191.554001,484.975220 
	C194.837814,485.254425 194.629471,486.617920 192.759064,487.835327 
	C191.440933,488.693268 189.672760,488.859772 187.579285,489.494537 
	C187.579285,495.572998 187.579285,501.692352 187.579285,507.811707 
	C187.579285,513.957825 187.579285,520.104004 187.579285,526.203918 
	C189.945526,527.268860 192.145767,528.259094 194.346008,529.249329 
	C194.173721,529.726135 194.001434,530.203003 193.829132,530.679810 
	C186.293030,530.679810 178.756927,530.679810 171.220810,530.679810 
	C171.033936,530.421997 170.847046,530.164124 170.660156,529.906311 
	C171.735168,529.196655 172.722153,528.196045 173.903717,527.838684 
	C176.280060,527.119812 177.378860,525.921570 177.373291,523.276550 
	C177.352600,513.470398 177.530350,503.663544 177.663330,493.857330 
	C177.707870,490.573639 177.226685,487.886536 172.952835,487.926636 
	C172.201141,487.933685 171.437927,486.716278 171.222839,484.973816 
	C177.848923,484.973816 184.475021,484.973816 191.554001,484.975220 
z"/>
<path fill="#F5F7F7" opacity="1.000000" stroke="none" 
	d="
M352.257843,117.871918 
	C351.904938,117.973793 351.435913,117.988876 351.201263,117.988754 
	C349.470520,107.986931 351.498657,103.403297 358.460175,101.053123 
	C362.749023,99.605225 364.896515,101.239174 364.306946,105.790131 
	C363.420471,112.633362 358.729797,115.941948 352.257843,117.871918 
z"/>
<path fill="#F1F4F4" opacity="1.000000" stroke="none" 
	d="
M333.994751,145.524109 
	C333.605042,146.523178 333.180206,147.124466 332.462402,147.480682 
	C331.770966,147.512024 331.372467,147.788437 330.973999,148.064850 
	C330.973999,148.064850 330.962097,148.003143 330.992493,148.009308 
	C327.953766,147.367920 324.524902,147.355133 321.924194,145.881104 
	C319.657532,144.596390 318.325104,141.663361 316.579865,139.458679 
	C319.237183,138.396042 321.855408,136.562408 324.559631,136.425339 
	C330.909790,136.103455 333.853424,139.186966 333.994751,145.524109 
z"/>
<path fill="#F1F4F4" opacity="1.000000" stroke="none" 
	d="
M246.096283,128.346207 
	C246.567581,127.989113 246.918793,127.985077 247.533401,127.986504 
	C247.470779,138.069199 245.828537,140.264282 237.882217,140.782196 
	C238.741333,136.755051 238.504272,132.393127 243.860397,131.104477 
	C244.709412,130.900208 245.277969,129.530273 246.096283,128.346207 
z"/>
<path fill="#29655D" opacity="1.000000" stroke="none" 
	d="
M299.569092,301.075287 
	C298.471130,297.122253 297.688019,293.206909 296.749756,288.515991 
	C297.035919,288.279999 298.143707,287.366486 299.832367,285.973969 
	C301.663757,291.114563 304.609772,295.458771 300.710083,300.778625 
	C300.304901,301.073395 300.094421,301.093170 299.569092,301.075287 
z"/>
<path fill="#4C7F78" opacity="1.000000" stroke="none" 
	d="
M248.904160,300.163910 
	C250.958450,298.855255 252.761871,297.714813 254.881241,296.374542 
	C254.928467,297.439575 254.962677,298.211060 255.016571,299.403625 
	C254.649414,300.888367 254.566040,302.338776 253.810059,302.932007 
	C252.410065,304.030579 250.333466,305.611115 249.042984,305.239532 
	C245.854660,304.321381 247.421326,302.120514 248.904160,300.163910 
M251.547379,302.479431 
	C251.547379,302.479431 251.382843,302.374146 251.382843,302.374146 
	C251.382843,302.374146 251.397018,302.557312 251.547379,302.479431 
z"/>
<path fill="#29655D" opacity="1.000000" stroke="none" 
	d="
M343.072815,303.620667 
	C341.046722,301.125946 338.447845,298.496735 341.522034,294.317108 
	C342.201233,293.838104 342.453552,293.802704 342.705872,293.767303 
	C343.123474,295.606262 343.541016,297.445251 343.958313,299.661865 
	C343.958008,300.039520 343.986053,299.941528 343.690460,300.007843 
	C343.619781,300.523346 343.844666,300.972504 344.069580,301.421661 
	C343.754761,302.065887 343.439911,302.710114 343.072815,303.620667 
z"/>
<path fill="#F7F9F9" opacity="1.000000" stroke="none" 
	d="
M344.298340,301.059418 
	C343.844666,300.972504 343.619781,300.523346 343.740295,300.018433 
	C344.232849,300.207550 344.379974,300.452362 344.298340,301.059418 
z"/>
<path fill="#175850" opacity="1.000000" stroke="none" 
	d="
M328.508820,189.520691 
	C326.034454,191.305969 324.719635,195.468185 321.115021,193.007172 
	C319.615448,191.983337 317.885620,188.691406 318.442719,187.809753 
	C319.558655,186.043747 322.066864,184.473816 324.196564,184.161560 
	C330.342255,183.260513 332.894775,181.152115 332.731720,176.107498 
	C332.625397,172.818619 330.902313,171.069260 328.012146,172.662292 
	C325.337769,174.136383 323.233063,176.699432 321.010773,178.916504 
	C319.760620,180.163696 318.779999,181.681091 317.178680,183.709122 
	C316.009369,175.847137 328.097412,160.054413 344.778687,146.257080 
	C346.576324,148.370651 348.372223,150.482193 350.126953,152.545349 
	C343.065979,163.441589 343.130585,164.789597 351.125732,171.544235 
	C348.577148,173.413757 346.082153,175.243973 343.942810,176.813309 
	C342.442749,174.913589 341.079315,173.186935 339.715912,171.460297 
	C339.083221,171.719086 338.450500,171.977890 337.817780,172.236679 
	C338.085022,175.144333 338.352295,178.051971 338.666565,181.471252 
	C335.726227,183.787628 332.246002,186.529312 328.508820,189.520691 
z"/>
<path fill="#226058" opacity="1.000000" stroke="none" 
	d="
M352.741821,290.289551 
	C348.658447,287.708221 344.907623,285.295227 341.156769,282.882263 
	C349.854645,280.841888 361.474945,288.030182 362.860382,295.306854 
	C359.422913,293.603607 356.248627,292.030762 352.741821,290.289551 
z"/>
<path fill="#29655D" opacity="1.000000" stroke="none" 
	d="
M219.935562,301.778931 
	C225.878586,298.106964 231.800156,294.399536 237.776794,290.783142 
	C239.760788,289.582642 241.886307,288.616058 244.481384,288.513031 
	C237.456375,294.838593 229.597626,299.706726 220.362457,302.693542 
	C219.953796,302.192017 219.944672,301.985474 219.935562,301.778931 
z"/>
<path fill="#226058" opacity="1.000000" stroke="none" 
	d="
M259.208374,294.354675 
	C264.056641,287.871765 269.204315,281.786346 277.462921,279.830994 
	C277.865143,280.348450 278.267334,280.865936 278.669556,281.383423 
	C272.742676,285.919739 266.815796,290.456055 260.313171,294.895935 
	C259.561066,294.651215 259.384735,294.502960 259.208374,294.354675 
z"/>
<path fill="#226058" opacity="1.000000" stroke="none" 
	d="
M342.684784,293.377686 
	C342.453552,293.802704 342.201233,293.838104 341.570770,293.928955 
	C339.607422,292.541138 338.187012,290.839508 336.405853,289.703491 
	C331.245697,286.412354 332.284851,282.257233 334.456024,277.065430 
	C337.388245,282.753845 340.025970,287.870941 342.684784,293.377686 
z"/>
<path fill="#226058" opacity="1.000000" stroke="none" 
	d="
M309.567078,276.388733 
	C312.797363,281.616638 312.032593,284.641479 306.775360,288.886230 
	C303.996216,283.697205 304.989716,278.600037 309.567078,276.388733 
z"/>
<path fill="#29655D" opacity="1.000000" stroke="none" 
	d="
M316.044281,278.044006 
	C317.547089,274.509949 319.112152,276.598816 319.693237,278.008575 
	C320.787018,280.662415 321.261719,283.571411 321.993774,286.374298 
	C321.519257,286.588898 321.044739,286.803497 320.570221,287.018097 
	C319.065338,284.152771 317.560425,281.287445 316.044281,278.044006 
z"/>
<path fill="#226058" opacity="1.000000" stroke="none" 
	d="
M259.995972,295.028748 
	C259.633545,295.562531 259.012543,295.867065 258.391541,296.171570 
	C258.532410,295.660706 258.673279,295.149841 259.011261,294.496826 
	C259.384735,294.502960 259.561066,294.651215 259.995972,295.028748 
z"/>
<path fill="#0F5249" opacity="1.000000" stroke="none" 
	d="
M219.461502,301.844788 
	C219.944672,301.985474 219.953796,302.192017 219.983154,302.708008 
	C219.305695,303.163574 218.608017,303.309692 217.910324,303.455780 
	C218.269363,302.940735 218.628403,302.425690 219.461502,301.844788 
z"/>
<path fill="#0F5249" opacity="1.000000" stroke="none" 
	d="
M223.740891,304.641663 
	C224.002182,304.586792 224.514328,304.815002 224.768250,305.259552 
	C224.337265,305.292175 224.164505,305.108459 223.740891,304.641663 
z"/>
<path fill="#0F5249" opacity="1.000000" stroke="none" 
	d="
M331.308472,148.169250 
	C331.372467,147.788437 331.770966,147.512024 332.240204,147.648819 
	C332.088287,148.132568 331.865631,148.203125 331.308472,148.169250 
z"/>
<path fill="#175850" opacity="1.000000" stroke="none" 
	d="
M341.177490,506.918030 
	C341.800873,508.658051 342.304138,510.030823 342.931976,511.743408 
	C339.219299,511.743408 335.860535,511.743408 332.095398,511.743408 
	C333.771973,507.315613 335.389557,503.043610 337.361725,497.835144 
	C338.836884,501.314087 339.947113,503.932434 341.177490,506.918030 
z"/>
<path fill="#12544B" opacity="1.000000" stroke="none" 
	d="
M299.461060,523.392944 
	C295.459778,525.110168 291.794373,527.445496 287.956879,527.774658 
	C282.294342,528.260315 279.449738,525.008545 279.369202,519.233765 
	C279.227936,509.104492 279.329742,498.971832 279.329742,488.929199 
	C287.573853,484.689606 297.871613,488.079468 301.403809,496.804474 
	C304.976166,505.628845 304.891479,514.640503 299.461060,523.392944 
z"/>
<path fill="#105249" opacity="1.000000" stroke="none" 
	d="
M503.661652,487.046692 
	C511.349792,488.477417 515.712402,493.065063 516.336121,500.218353 
	C516.875916,506.408783 516.834778,512.834229 515.764465,518.929993 
	C514.644836,525.307129 509.259613,528.876221 503.143463,528.984192 
	C497.666473,529.080933 493.161163,525.656921 491.033295,519.603210 
	C488.485565,512.354919 488.148315,504.947174 490.055115,497.517883 
	C491.862854,490.474701 495.989624,487.307220 503.661652,487.046692 
z"/>
<path fill="#175850" opacity="1.000000" stroke="none" 
	d="
M442.604095,507.638092 
	C443.885712,504.381104 445.009583,501.478241 446.452881,497.750244 
	C448.499390,502.828888 450.207581,507.067963 452.082855,511.721710 
	C448.230255,511.721710 444.863770,511.721710 441.283051,511.721710 
	C441.674255,510.467499 442.060272,509.229858 442.604095,507.638092 
z"/>
<path fill="#0F5249" opacity="1.000000" stroke="none" 
	d="
M251.472198,302.518372 
	C251.397018,302.557312 251.382843,302.374146 251.382843,302.374146 
	C251.382843,302.374146 251.547379,302.479431 251.472198,302.518372 
z"/>
</svg>